<svg xmlns="http://www.w3.org/2000/svg" width="891" height="88" viewBox="0 0 891 88">
  <g id="Group_10670" data-name="Group 10670" transform="translate(-40 -184)">
    <g id="Group_10406" data-name="Group 10406">
      <rect id="Rectangle_780" data-name="Rectangle 780" width="891" height="88" transform="translate(40 184)" fill="#efc726"/>
      <g id="Group_10407" data-name="Group 10407">
        <rect id="Rectangle_803" data-name="Rectangle 803" width="35" height="35" transform="translate(40 237)" fill="#e6bf21" opacity="0.47"/>
        <rect id="Rectangle_807" data-name="Rectangle 807" width="35" height="35" transform="translate(628 237)" fill="#e6bf21" opacity="0.47"/>
        <rect id="Rectangle_814" data-name="Rectangle 814" width="35" height="35" transform="translate(323 184)" fill="#e6bf21" opacity="0.47"/>
        <rect id="Rectangle_808" data-name="Rectangle 808" width="35" height="35" transform="translate(835 184)" fill="#e6bf21" opacity="0.47"/>
        <rect id="Rectangle_806" data-name="Rectangle 806" width="35" height="35" transform="translate(423 237)" fill="#e6bf21" opacity="0.47"/>
        <rect id="Rectangle_813" data-name="Rectangle 813" width="35" height="35" transform="translate(171 228)" fill="#e6bf21" opacity="0.47"/>
        <rect id="Rectangle_811" data-name="Rectangle 811" width="35" height="35" transform="translate(791 237)" fill="#e6bf21" opacity="0.47"/>
        <rect id="Rectangle_809" data-name="Rectangle 809" width="35" height="35" transform="translate(675 184)" fill="#e6bf21" opacity="0.47"/>
        <rect id="Rectangle_804" data-name="Rectangle 804" width="35" height="35" transform="translate(90 184)" fill="#e6bf21" opacity="0.47"/>
        <rect id="Rectangle_805" data-name="Rectangle 805" width="35" height="35" transform="translate(288 228)" fill="#e6bf21" opacity="0.47"/>
        <rect id="Rectangle_812" data-name="Rectangle 812" width="35" height="35" transform="translate(896 237)" fill="#e6bf21" opacity="0.47"/>
        <rect id="Rectangle_810" data-name="Rectangle 810" width="35" height="35" transform="translate(508 193)" fill="#e6bf21" opacity="0.47"/>
      </g>
    </g>
    <g id="Group_10491" data-name="Group 10491" transform="translate(65 199)">
      <g id="Group_10408" data-name="Group 10408">
        <rect id="Rectangle_815" data-name="Rectangle 815" width="57.451" height="57.452" fill="#2980b9" stroke="#fff" stroke-width="2"/>
      </g>
      <g id="Group_10409" data-name="Group 10409" transform="translate(13.428 7.331)">
        <path id="Path_99771" data-name="Path 99771" d="M97.315,801.887,69.306,773.877l-1.237.3-.793,1.692-4.488-4.488L60.78,779.5l-4.22.616-3.269-.881,6.083,6.084,1.012,8.089-3.137,15.9L69.435,821.5h27.88Z" transform="translate(-53.292 -771.379)" fill="#e6e6e6" opacity="0.25"/>
      </g>
      <g id="Group_10456" data-name="Group 10456" transform="translate(13.428 7.331)">
        <g id="Group_10410" data-name="Group 10410" transform="translate(0.541 19.112)">
          <path id="Path_99772" data-name="Path 99772" d="M71.743,801.021c0,5.824-4.01,10.547-8.955,10.547s-8.955-4.722-8.955-10.547,4.01-10.547,8.955-10.547S71.743,795.2,71.743,801.021Z" transform="translate(-53.833 -790.474)" fill="#d35400"/>
        </g>
        <g id="Group_10411" data-name="Group 10411" transform="translate(0.546 19.268)">
          <path id="Path_99773" data-name="Path 99773" d="M69.553,807.916q-1.206.9-2.407,1.626a27.241,27.241,0,0,1-3.685-1.268,28.8,28.8,0,0,0,3.235-1.823,27.886,27.886,0,0,0,3.249.89c.105-.165.211-.327.307-.5a26.892,26.892,0,0,1-2.976-.775,31.127,31.127,0,0,0,2.765-2.13c.432.114.856.213,1.272.3.048-.174.085-.353.124-.532-.3-.063-.594-.132-.9-.209.371-.333.743-.685,1.111-1.049q.048-.425.067-.859c-.6.615-1.209,1.2-1.82,1.737a27.147,27.147,0,0,1-3.109-1.072,31.764,31.764,0,0,0,2.517-2.089c.834.3,1.641.534,2.431.74,0-.194-.014-.384-.025-.575-.639-.17-1.287-.359-1.954-.593.544-.519,1.085-1.082,1.621-1.666-.051-.211-.113-.416-.175-.622q-1,1.119-2.027,2.079a27.829,27.829,0,0,1-2.787-1.224c.772-.635,1.541-1.323,2.3-2.081.825.377,1.634.694,2.43.971-.076-.231-.16-.456-.249-.677-.583-.214-1.171-.445-1.77-.713q.459-.475.917-.982c-.1-.163-.2-.328-.308-.484-.378.422-.759.834-1.142,1.222a28.188,28.188,0,0,1-2.51-1.353c.623-.565,1.241-1.176,1.857-1.824-.144-.118-.293-.228-.442-.336-.631.662-1.266,1.283-1.906,1.856-.779-.492-1.56-1.038-2.342-1.645q.845-.688,1.687-1.474c-.213-.06-.427-.112-.646-.155-.492.449-.987.877-1.482,1.276-.5-.4-.989-.827-1.482-1.276q-.326.064-.646.155.841.787,1.687,1.474c-.781.607-1.563,1.152-2.342,1.645-.64-.573-1.275-1.194-1.906-1.856-.149.108-.3.218-.442.336.616.648,1.234,1.259,1.857,1.824A28.186,28.186,0,0,1,57,795.561c-.383-.388-.764-.8-1.142-1.222-.108.156-.207.321-.308.485.3.336.611.665.917.981-.6.267-1.187.5-1.77.713-.089.221-.173.445-.249.677.8-.277,1.605-.594,2.43-.971.763.758,1.532,1.446,2.3,2.081a27.829,27.829,0,0,1-2.787,1.224q-1.021-.961-2.027-2.079c-.062.205-.123.411-.175.622.536.584,1.077,1.147,1.622,1.666-.668.233-1.316.422-1.955.593-.011.191-.023.381-.025.575.79-.205,1.6-.44,2.431-.74a31.765,31.765,0,0,0,2.517,2.089,27.093,27.093,0,0,1-3.11,1.072c-.61-.535-1.216-1.121-1.819-1.737q.02.434.067.859c.368.364.74.716,1.111,1.05-.3.076-.6.145-.9.208.04.179.076.359.124.532.416-.089.84-.188,1.272-.3a31.126,31.126,0,0,0,2.765,2.13,26.677,26.677,0,0,1-2.976.775c.1.172.2.334.307.5a28.068,28.068,0,0,0,3.249-.889,28.857,28.857,0,0,0,3.235,1.822,27.24,27.24,0,0,1-3.685,1.268q-1.2-.725-2.408-1.626a9.507,9.507,0,0,0,2.288,2.229c.012,0,.024-.006.037-.009.542.322,1.083.615,1.619.889a7.724,7.724,0,0,0,2.474.521,27.361,27.361,0,0,1-3.35-1.611,27.752,27.752,0,0,0,3.7-1.353,27.6,27.6,0,0,0,3.7,1.353,27.421,27.421,0,0,1-3.349,1.611,7.724,7.724,0,0,0,2.474-.521c.536-.274,1.076-.568,1.618-.889.013,0,.025.005.037.009A9.5,9.5,0,0,0,69.553,807.916Zm-.151-4.156a30.327,30.327,0,0,1-2.782,2.083,27.421,27.421,0,0,1-3.24-1.385,29.26,29.26,0,0,0,2.891-1.822A27.857,27.857,0,0,0,69.4,803.761Zm-3.722-1.385a28.9,28.9,0,0,1-2.892,1.778,28.9,28.9,0,0,1-2.892-1.778,28.551,28.551,0,0,0,2.892-1.522A28.552,28.552,0,0,0,65.68,802.375ZM60.187,798.4a29.326,29.326,0,0,0,2.6-1.6,29.241,29.241,0,0,0,2.6,1.6,29.766,29.766,0,0,1-2.6,1.809A29.918,29.918,0,0,1,60.187,798.4Zm8.542,1.545a31.038,31.038,0,0,1-2.526,2.06,28.148,28.148,0,0,1-2.883-1.48,30.51,30.51,0,0,0,2.6-1.84A27.842,27.842,0,0,0,68.728,799.947Zm-3.1-5.356a28.9,28.9,0,0,0,2.536,1.386c-.764.749-1.533,1.425-2.306,2.05a28.928,28.928,0,0,1-2.586-1.561Q64.45,795.619,65.627,794.592Zm-2.839-1.974c.785.615,1.57,1.164,2.353,1.666q-1.174,1.015-2.353,1.846-1.177-.833-2.353-1.846C61.218,793.782,62,793.232,62.788,792.618Zm-5.375,3.36c.837-.4,1.684-.864,2.536-1.386q1.176,1.027,2.356,1.875a28.93,28.93,0,0,1-2.586,1.561C58.947,797.4,58.177,796.726,57.413,795.978Zm-.565,3.969a27.928,27.928,0,0,0,2.806-1.26,30.35,30.35,0,0,0,2.6,1.84,28.046,28.046,0,0,1-2.883,1.48A30.858,30.858,0,0,1,56.849,799.947Zm-.675,3.813a27.856,27.856,0,0,0,3.132-1.124,29.262,29.262,0,0,0,2.891,1.822,27.361,27.361,0,0,1-3.241,1.385A30.277,30.277,0,0,1,56.174,803.761Zm3.364,2.458a28.174,28.174,0,0,0,3.25-1.437,28.022,28.022,0,0,0,3.25,1.437,27.9,27.9,0,0,1-3.25,1.757A27.9,27.9,0,0,1,59.538,806.219Z" transform="translate(-53.838 -790.63)" fill="#8a3700"/>
        </g>
        <g id="Group_10442" data-name="Group 10442" transform="translate(0.685 19.479)">
          <g id="Group_10412" data-name="Group 10412" transform="translate(7.212 6.103)">
            <path id="Path_99774" data-name="Path 99774" d="M61.182,797.94c.527.387,1.064.753,1.6,1.093q.8-.51,1.6-1.093c-.54-.314-1.075-.65-1.6-1C62.258,797.29,61.722,797.625,61.182,797.94Z" transform="translate(-61.182 -796.939)" fill="#f39c12"/>
          </g>
          <g id="Group_10413" data-name="Group 10413" transform="translate(10.256 3.904)">
            <path id="Path_99775" data-name="Path 99775" d="M64.223,795.913c.511.327,1.034.638,1.562.929.493-.407.965-.82,1.423-1.248-.516-.266-1.029-.552-1.534-.852C65.192,795.154,64.706,795.546,64.223,795.913Z" transform="translate(-64.223 -794.742)" fill="#f39c12"/>
          </g>
          <g id="Group_10414" data-name="Group 10414" transform="translate(7.027 10.129)">
            <path id="Path_99776" data-name="Path 99776" d="M61,801.926c.589.383,1.186.741,1.785,1.07.6-.329,1.2-.687,1.786-1.07-.6-.3-1.2-.621-1.786-.965C62.2,801.3,61.6,801.628,61,801.926Z" transform="translate(-60.997 -800.961)" fill="#f39c12"/>
          </g>
          <g id="Group_10415" data-name="Group 10415" transform="translate(4.383 3.904)">
            <path id="Path_99777" data-name="Path 99777" d="M58.355,795.595c.456.426.928.839,1.422,1.247.528-.291,1.051-.6,1.562-.929-.483-.367-.97-.759-1.451-1.171C59.384,795.042,58.871,795.327,58.355,795.595Z" transform="translate(-58.355 -794.742)" fill="#f39c12"/>
          </g>
          <g id="Group_10416" data-name="Group 10416" transform="translate(3.905 7.972)">
            <path id="Path_99778" data-name="Path 99778" d="M59.438,800.845c.587-.268,1.174-.562,1.757-.881-.547-.368-1.085-.756-1.606-1.158-.56.28-1.132.544-1.711.789C58.391,800.033,58.913,800.451,59.438,800.845Z" transform="translate(-57.878 -798.806)" fill="#f39c12"/>
          </g>
          <g id="Group_10417" data-name="Group 10417" transform="translate(0.395 9.431)">
            <path id="Path_99779" data-name="Path 99779" d="M55.816,802.186c.624-.181,1.247-.388,1.865-.619-.525-.418-1.041-.854-1.539-1.3-.579.2-1.171.383-1.771.546C54.838,801.284,55.322,801.743,55.816,802.186Z" transform="translate(-54.371 -800.264)" fill="#f39c12"/>
          </g>
          <g id="Group_10418" data-name="Group 10418" transform="translate(1.2 5.516)">
            <path id="Path_99780" data-name="Path 99780" d="M55.175,797c.436.469.889.926,1.349,1.367.555-.215,1.11-.453,1.658-.711-.485-.419-.961-.854-1.42-1.3Q55.976,796.7,55.175,797Z" transform="translate(-55.175 -796.352)" fill="#f39c12"/>
          </g>
          <g id="Group_10419" data-name="Group 10419" transform="translate(13.918 17.44)">
            <path id="Path_99781" data-name="Path 99781" d="M67.882,809.192c.146.035.287.061.431.091a9.754,9.754,0,0,0,.947-1.018Q68.57,808.759,67.882,809.192Z" transform="translate(-67.882 -808.265)" fill="#f39c12"/>
          </g>
          <g id="Group_10420" data-name="Group 10420" transform="translate(2.327 17.44)">
            <path id="Path_99782" data-name="Path 99782" d="M56.3,808.265a9.829,9.829,0,0,0,.946,1.017c.145-.031.285-.055.432-.09C57.221,808.9,56.761,808.592,56.3,808.265Z" transform="translate(-56.301 -808.265)" fill="#f39c12"/>
          </g>
          <g id="Group_10421" data-name="Group 10421" transform="translate(13.416 5.516)">
            <path id="Path_99783" data-name="Path 99783" d="M70.387,797c-.532-.2-1.063-.413-1.586-.644-.459.446-.935.881-1.42,1.3.547.257,1.1.5,1.659.711C69.5,797.921,69.951,797.464,70.387,797Z" transform="translate(-67.38 -796.352)" fill="#f39c12"/>
          </g>
          <g id="Group_10422" data-name="Group 10422" transform="translate(3.34 11.899)">
            <path id="Path_99784" data-name="Path 99784" d="M61.015,803.883q-.908-.543-1.781-1.154c-.634.262-1.276.5-1.922.718.558.439,1.133.859,1.716,1.252C59.693,804.457,60.358,804.184,61.015,803.883Z" transform="translate(-57.313 -802.729)" fill="#f39c12"/>
          </g>
          <g id="Group_10423" data-name="Group 10423" transform="translate(4.906)">
            <path id="Path_99785" data-name="Path 99785" d="M60.058,792.691c.474-.31.943-.635,1.4-.974-.332-.282-.66-.576-.984-.876a8,8,0,0,0-1.6.7C59.268,791.94,59.662,792.325,60.058,792.691Z" transform="translate(-58.878 -790.841)" fill="#f39c12"/>
          </g>
          <g id="Group_10424" data-name="Group 10424" transform="translate(10.401 7.972)">
            <path id="Path_99786" data-name="Path 99786" d="M64.368,799.964c.583.318,1.171.612,1.757.881.525-.393,1.047-.812,1.561-1.25-.58-.244-1.152-.508-1.712-.789C65.453,799.207,64.915,799.6,64.368,799.964Z" transform="translate(-64.368 -798.806)" fill="#f39c12"/>
          </g>
          <g id="Group_10425" data-name="Group 10425" transform="translate(16.814 7.47)">
            <path id="Path_99787" data-name="Path 99787" d="M70.775,798.969c.255.078.517.153.788.227-.006-.121-.02-.238-.028-.358-.032-.181-.076-.356-.117-.533C71.206,798.527,70.992,798.75,70.775,798.969Z" transform="translate(-70.775 -798.304)" fill="#f39c12"/>
          </g>
          <g id="Group_10426" data-name="Group 10426" transform="translate(13.003 1.665)">
            <path id="Path_99788" data-name="Path 99788" d="M66.967,793.584c.49.279.984.542,1.476.785.233-.242.468-.5.7-.758a9.589,9.589,0,0,0-1.1-1.107C67.685,792.879,67.324,793.244,66.967,793.584Z" transform="translate(-66.967 -792.504)" fill="#f39c12"/>
          </g>
          <g id="Group_10427" data-name="Group 10427" transform="translate(6.803 14.036)">
            <path id="Path_99789" data-name="Path 99789" d="M64.791,805.788c-.684-.283-1.356-.593-2.009-.924-.652.331-1.323.641-2.009.924.657.377,1.328.728,2.009,1.046C63.461,806.515,64.134,806.165,64.791,805.788Z" transform="translate(-60.773 -804.864)" fill="#f39c12"/>
          </g>
          <g id="Group_10428" data-name="Group 10428" transform="translate(0.295 13.179)">
            <path id="Path_99790" data-name="Path 99790" d="M54.949,805.824c.713-.136,1.42-.3,2.115-.495-.564-.417-1.123-.86-1.668-1.321-.373.1-.749.172-1.124.252a11.51,11.51,0,0,0,.489,1.4C54.822,805.715,54.887,805.773,54.949,805.824Z" transform="translate(-54.271 -804.008)" fill="#f39c12"/>
          </g>
          <g id="Group_10429" data-name="Group 10429" transform="translate(2.442 1.668)">
            <path id="Path_99791" data-name="Path 99791" d="M57.119,794.37c.491-.243.986-.505,1.476-.786-.363-.345-.724-.706-1.082-1.076a9.518,9.518,0,0,0-1.1,1.1C56.65,793.87,56.884,794.126,57.119,794.37Z" transform="translate(-56.416 -792.508)" fill="#f39c12"/>
          </g>
          <g id="Group_10430" data-name="Group 10430" transform="translate(1.368 4.155)">
            <path id="Path_99792" data-name="Path 99792" d="M55.526,795.086c-.028-.03-.056-.064-.084-.094-.032.055-.068.108-.1.163C55.4,795.131,55.465,795.111,55.526,795.086Z" transform="translate(-55.343 -794.992)" fill="#f39c12"/>
          </g>
          <g id="Group_10431" data-name="Group 10431" transform="translate(0 7.457)">
            <path id="Path_99793" data-name="Path 99793" d="M54.788,798.971c-.222-.222-.428-.452-.643-.679-.067.3-.124.6-.169.9C54.246,799.12,54.517,799.055,54.788,798.971Z" transform="translate(-53.976 -798.291)" fill="#f39c12"/>
          </g>
          <g id="Group_10432" data-name="Group 10432" transform="translate(6.528 17.821)">
            <path id="Path_99794" data-name="Path 99794" d="M65.067,809.531c-.769-.259-1.532-.556-2.285-.885-.753.329-1.517.626-2.284.885.745.377,1.509.722,2.284,1.029C63.558,810.252,64.321,809.908,65.067,809.531Z" transform="translate(-60.498 -808.646)" fill="#f39c12"/>
          </g>
          <g id="Group_10433" data-name="Group 10433" transform="translate(2.652 15.695)">
            <path id="Path_99795" data-name="Path 99795" d="M58.513,808.414c.762-.21,1.52-.455,2.267-.735-.664-.355-1.325-.743-1.978-1.157-.719.237-1.446.445-2.176.625C57.241,807.595,57.872,808.019,58.513,808.414Z" transform="translate(-56.626 -806.522)" fill="#f39c12"/>
          </g>
          <g id="Group_10434" data-name="Group 10434" transform="translate(14.535 13.179)">
            <path id="Path_99796" data-name="Path 99796" d="M71.2,804.248c-.348-.074-.689-.154-1.028-.24-.545.461-1.1.9-1.669,1.321.694.193,1.4.358,2.114.495.044-.038.122-.107.194-.172.087-.207.173-.414.248-.629C71.1,804.766,71.15,804.507,71.2,804.248Z" transform="translate(-68.498 -804.008)" fill="#f39c12"/>
          </g>
          <g id="Group_10435" data-name="Group 10435" transform="translate(16.564 11.018)">
            <path id="Path_99797" data-name="Path 99797" d="M70.525,802.967c.344.087.677.154,1.009.223a12.459,12.459,0,0,0,.158-1.341C71.3,802.236,70.916,802.616,70.525,802.967Z" transform="translate(-70.525 -801.849)" fill="#f39c12"/>
          </g>
          <g id="Group_10436" data-name="Group 10436" transform="translate(10.581 11.899)">
            <path id="Path_99798" data-name="Path 99798" d="M64.548,803.883q.988.452,1.987.816c.583-.393,1.157-.813,1.717-1.252-.647-.215-1.29-.455-1.923-.718C65.749,803.134,65.154,803.521,64.548,803.883Z" transform="translate(-64.548 -802.729)" fill="#f39c12"/>
          </g>
          <g id="Group_10437" data-name="Group 10437" transform="translate(13.918 9.431)">
            <path id="Path_99799" data-name="Path 99799" d="M71.191,800.81c-.606-.165-1.191-.345-1.77-.546-.5.449-1.014.885-1.539,1.3.618.231,1.242.437,1.865.619C70.232,801.75,70.716,801.29,71.191,800.81Z" transform="translate(-67.882 -800.264)" fill="#f39c12"/>
          </g>
          <g id="Group_10438" data-name="Group 10438" transform="translate(10.818 15.695)">
            <path id="Path_99800" data-name="Path 99800" d="M68.939,807.147c-.731-.178-1.458-.387-2.178-.625-.652.414-1.313.8-1.977,1.157.747.279,1.505.526,2.268.735C67.693,808.019,68.323,807.595,68.939,807.147Z" transform="translate(-64.784 -806.522)" fill="#f39c12"/>
          </g>
          <g id="Group_10439" data-name="Group 10439" transform="translate(7.378 1.95)">
            <path id="Path_99801" data-name="Path 99801" d="M62.781,794.928c.483-.353.964-.725,1.434-1.113-.5-.334-.971-.672-1.434-1.026-.463.353-.939.692-1.434,1.026Q62.053,794.4,62.781,794.928Z" transform="translate(-61.347 -792.789)" fill="#f39c12"/>
          </g>
          <g id="Group_10440" data-name="Group 10440" transform="translate(10.137)">
            <path id="Path_99802" data-name="Path 99802" d="M64.1,791.717c.456.338.926.664,1.4.974.389-.359.783-.75,1.176-1.153a8.089,8.089,0,0,0-1.591-.7C64.764,791.141,64.435,791.436,64.1,791.717Z" transform="translate(-64.104 -790.841)" fill="#f39c12"/>
          </g>
          <g id="Group_10441" data-name="Group 10441" transform="translate(16.072 4.156)">
            <path id="Path_99803" data-name="Path 99803" d="M70.034,795.086l.185.072c-.033-.055-.068-.109-.1-.165C70.09,795.023,70.063,795.056,70.034,795.086Z" transform="translate(-70.034 -794.993)" fill="#f39c12"/>
          </g>
        </g>
        <g id="Group_10443" data-name="Group 10443" transform="translate(10.269 2.498)">
          <path id="Path_99804" data-name="Path 99804" d="M64.179,784.472c-2.423-7.581,2.8-10.371,5.119-10.6-2.263,1.441-.009,6.7-3.335,10.334C65.612,784.593,64.179,784.472,64.179,784.472Z" transform="translate(-63.552 -773.875)" fill="#186b3b"/>
        </g>
        <g id="Group_10444" data-name="Group 10444" transform="translate(2.979 2.498)">
          <path id="Path_99805" data-name="Path 99805" d="M61.387,784.472c2.423-7.581-2.8-10.371-5.119-10.6,2.263,1.441.008,6.7,3.335,10.334C59.953,784.593,61.387,784.472,61.387,784.472Z" transform="translate(-56.268 -773.875)" fill="#186b3b"/>
        </g>
        <g id="Group_10445" data-name="Group 10445" transform="translate(6.261)">
          <path id="Path_99806" data-name="Path 99806" d="M59.547,785.657c0,2.046,1.449,6.53,3.236,6.53s3.236-4.484,3.236-6.53c0-6.9-3.236-14.278-3.236-14.278A38.238,38.238,0,0,0,59.547,785.657Z" transform="translate(-59.547 -771.379)" fill="#1f8c4d"/>
        </g>
        <g id="Group_10446" data-name="Group 10446" transform="translate(9.406 7.439)">
          <path id="Path_99807" data-name="Path 99807" d="M62.69,786.057c1.524-7.811,7.448-7.743,9.588-6.825-2.678.174-3.231,5.866-7.9,7.454C63.888,786.852,62.69,786.057,62.69,786.057Z" transform="translate(-62.69 -778.811)" fill="#1da155"/>
        </g>
        <g id="Group_10447" data-name="Group 10447" transform="translate(0 7.439)">
          <path id="Path_99808" data-name="Path 99808" d="M62.88,786.057c-1.525-7.811-7.449-7.743-9.588-6.825,2.677.174,3.231,5.866,7.9,7.454C61.679,786.852,62.88,786.057,62.88,786.057Z" transform="translate(-53.292 -778.811)" fill="#1da155"/>
        </g>
        <g id="Group_10448" data-name="Group 10448" transform="translate(6.56 6.644)">
          <path id="Path_99809" data-name="Path 99809" d="M59.846,787.736c0,1.392,1.315,4.445,2.937,4.445s2.937-3.053,2.937-4.445c0-4.7-2.937-9.719-2.937-9.719A21.007,21.007,0,0,0,59.846,787.736Z" transform="translate(-59.846 -778.017)" fill="#186b3b"/>
        </g>
        <g id="Group_10449" data-name="Group 10449" transform="translate(9.679 13.113)">
          <path id="Path_99810" data-name="Path 99810" d="M63.02,789.685c.875-5.076,5.361-5.512,7.647-5.076-1.818.848-5.817,7.349-7.44,6.247C62.8,790.564,63.02,789.685,63.02,789.685Z" transform="translate(-62.963 -784.48)" fill="#27ae60"/>
        </g>
        <g id="Group_10450" data-name="Group 10450" transform="translate(1.609 13.113)">
          <path id="Path_99811" data-name="Path 99811" d="M62.548,789.685c-.876-5.076-5.361-5.512-7.648-5.076,1.818.848,5.817,7.349,7.44,6.247C62.769,790.564,62.548,789.685,62.548,789.685Z" transform="translate(-54.9 -784.48)" fill="#27ae60"/>
        </g>
        <g id="Group_10451" data-name="Group 10451" transform="translate(6.834 13.242)">
          <path id="Path_99812" data-name="Path 99812" d="M60.12,789.8a2.68,2.68,0,0,0,5.325,0c0-2.508-2.662-5.192-2.662-5.192S60.12,787.116,60.12,789.8Z" transform="translate(-60.12 -784.609)" fill="#1f8c4d"/>
        </g>
        <g id="Group_10452" data-name="Group 10452" transform="translate(3.268 19.112)" opacity="0.7">
          <path id="Path_99813" data-name="Path 99813" d="M62.786,790.474a7.881,7.881,0,0,0-4.314,1.305,1.641,1.641,0,0,1,.321-.032c1.173,0,1.735,1.323,1.608,2.349a2.132,2.132,0,0,1,3.584,1.656,1.821,1.821,0,0,1,2.825,1.914,1.781,1.781,0,0,1,1.506,1.34,5.217,5.217,0,0,1,.036,2.136,3.8,3.8,0,0,1,0,2.015,7.615,7.615,0,0,1-.263,1.117,3.718,3.718,0,0,1-.927,1.448,3.213,3.213,0,0,1-.658,1.711,4.631,4.631,0,0,1-1.833,1.33,8.284,8.284,0,0,1-3.619.7c-1.567-.055-2.983-.7-4.5-.882a8.091,8.091,0,0,0,6.229,2.989c4.945,0,8.955-4.722,8.955-10.547S67.731,790.474,62.786,790.474Z" transform="translate(-56.557 -790.474)" fill="#8d734e"/>
        </g>
        <g id="Group_10453" data-name="Group 10453" transform="translate(9.838 16.83)">
          <path id="Path_99814" data-name="Path 99814" d="M63.142,791.028c.466-2.233,4.007-2.967,5.361-2.815-1.512.877-1.715,3.736-5.042,3.741C63,791.954,63.142,791.028,63.142,791.028Z" transform="translate(-63.121 -788.194)" fill="#186b3b"/>
        </g>
        <g id="Group_10454" data-name="Group 10454" transform="translate(3.773 16.83)">
          <path id="Path_99815" data-name="Path 99815" d="M62.423,791.028c-.467-2.233-4.007-2.967-5.361-2.815,1.511.877,1.715,3.736,5.042,3.741C62.568,791.954,62.423,791.028,62.423,791.028Z" transform="translate(-57.062 -788.194)" fill="#186b3b"/>
        </g>
        <g id="Group_10455" data-name="Group 10455" transform="translate(6.834 16.849)">
          <path id="Path_99816" data-name="Path 99816" d="M60.12,790.843c-.023.744,1.191,1.328,2.662,1.328s2.685-.585,2.662-1.328c-.027-.936-2.662-2.63-2.662-2.63S60.148,789.908,60.12,790.843Z" transform="translate(-60.12 -788.213)" fill="#27ae60"/>
        </g>
      </g>
      <g id="Group_10490" data-name="Group 10490" transform="translate(24.869 22.662)">
        <g id="Group_10472" data-name="Group 10472" transform="translate(3.006 3.634)">
          <g id="Group_10457" data-name="Group 10457" transform="translate(0.002 0.233)">
            <path id="Path_99817" data-name="Path 99817" d="M67.728,790.56c3.793,4.473,16.565,10,21.789,9.557.165-.014-.039,1.1.072,1.15C83.649,807.573,68.647,807.027,67.728,790.56Z" transform="translate(-67.728 -790.56)" fill="#f39c12"/>
          </g>
          <g id="Group_10458" data-name="Group 10458" transform="translate(0.002 0.233)">
            <path id="Path_99818" data-name="Path 99818" d="M83.4,803.471c-5.832,0-10.37-4.214-11.765-9.7a18.245,18.245,0,0,1-3.908-3.209c.87,15.591,14.361,16.905,20.836,11.648A11.553,11.553,0,0,1,83.4,803.471Z" transform="translate(-67.728 -790.56)" fill="#e67e22"/>
          </g>
          <g id="Group_10459" data-name="Group 10459">
            <path id="Path_99819" data-name="Path 99819" d="M67.95,790.327c.024.07-.247.162-.222.233,2.421,6.73,10.492,14.173,21.789,9.557.154-.062.239-.824.394-.89C84.686,799.745,71.587,793.257,67.95,790.327Z" transform="translate(-67.726 -790.327)" fill="#f1c40f"/>
          </g>
          <g id="Group_10460" data-name="Group 10460" transform="translate(21.404 8.9)">
            <path id="Path_99820" data-name="Path 99820" d="M89.225,800.218l.668-1a3.25,3.25,0,0,1,.429,1c0,.3-.393,1-.752,1.041S88.952,800.327,89.225,800.218Z" transform="translate(-89.111 -799.219)" fill="#34495e"/>
          </g>
          <g id="Group_10461" data-name="Group 10461" transform="translate(2.02 1.713)">
            <path id="Path_99821" data-name="Path 99821" d="M70.583,792.472a.419.419,0,1,1-.419-.434A.426.426,0,0,1,70.583,792.472Z" transform="translate(-69.745 -792.038)" fill="#f39c12"/>
          </g>
          <g id="Group_10462" data-name="Group 10462" transform="translate(2.439 3.449)">
            <path id="Path_99822" data-name="Path 99822" d="M70.861,794.135a.349.349,0,1,1-.348-.362A.355.355,0,0,1,70.861,794.135Z" transform="translate(-70.163 -793.773)" fill="#f39c12"/>
          </g>
          <g id="Group_10463" data-name="Group 10463" transform="translate(4.726 3.724)">
            <path id="Path_99823" data-name="Path 99823" d="M73.521,794.6a.537.537,0,1,1-.536-.556A.547.547,0,0,1,73.521,794.6Z" transform="translate(-72.448 -794.048)" fill="#f39c12"/>
          </g>
          <g id="Group_10464" data-name="Group 10464" transform="translate(6.357 4.55)">
            <path id="Path_99824" data-name="Path 99824" d="M74.723,795.206a.322.322,0,1,1-.322-.333A.328.328,0,0,1,74.723,795.206Z" transform="translate(-74.078 -794.873)" fill="#f39c12"/>
          </g>
          <g id="Group_10465" data-name="Group 10465" transform="translate(7.516 4.837)">
            <path id="Path_99825" data-name="Path 99825" d="M75.708,795.4a.236.236,0,1,1-.236-.244A.241.241,0,0,1,75.708,795.4Z" transform="translate(-75.236 -795.16)" fill="#f39c12"/>
          </g>
          <g id="Group_10466" data-name="Group 10466" transform="translate(5.262 5.611)">
            <path id="Path_99826" data-name="Path 99826" d="M73.807,796.358a.412.412,0,1,1-.411-.425A.419.419,0,0,1,73.807,796.358Z" transform="translate(-72.984 -795.933)" fill="#f39c12"/>
          </g>
          <g id="Group_10467" data-name="Group 10467" transform="translate(9.62 6.036)">
            <path id="Path_99827" data-name="Path 99827" d="M77.81,796.6a.236.236,0,1,1-.235-.245A.241.241,0,0,1,77.81,796.6Z" transform="translate(-77.338 -796.358)" fill="#f39c12"/>
          </g>
          <g id="Group_10468" data-name="Group 10468" transform="translate(11.777 7.45)">
            <path id="Path_99828" data-name="Path 99828" d="M80.525,798.305a.516.516,0,1,1-.515-.535A.526.526,0,0,1,80.525,798.305Z" transform="translate(-79.493 -797.77)" fill="#f39c12"/>
          </g>
          <g id="Group_10469" data-name="Group 10469" transform="translate(13.443 7.985)">
            <path id="Path_99829" data-name="Path 99829" d="M81.586,798.526a.215.215,0,1,1-.214-.221A.219.219,0,0,1,81.586,798.526Z" transform="translate(-81.157 -798.305)" fill="#f39c12"/>
          </g>
          <g id="Group_10470" data-name="Group 10470" transform="translate(14.903 7.985)">
            <path id="Path_99830" data-name="Path 99830" d="M83.26,798.638a.322.322,0,1,1-.321-.333A.328.328,0,0,1,83.26,798.638Z" transform="translate(-82.616 -798.305)" fill="#f39c12"/>
          </g>
          <g id="Group_10471" data-name="Group 10471" transform="translate(16.234 8.328)">
            <path id="Path_99831" data-name="Path 99831" d="M84.5,798.934a.275.275,0,1,1-.275-.286A.281.281,0,0,1,84.5,798.934Z" transform="translate(-83.946 -798.648)" fill="#f39c12"/>
          </g>
        </g>
        <g id="Group_10487" data-name="Group 10487" transform="translate(0 4.077)">
          <g id="Group_10473" data-name="Group 10473" transform="translate(0 0.067)">
            <path id="Path_99832" data-name="Path 99832" d="M67.334,790.837c.777,5.9,8.476,17.824,13.069,20.444.144.083-.621.9-.554,1C71.536,814.135,59.323,805.088,67.334,790.837Z" transform="translate(-64.723 -790.837)" fill="#f39c12"/>
          </g>
          <g id="Group_10474" data-name="Group 10474" transform="translate(2.21)">
            <path id="Path_99833" data-name="Path 99833" d="M67.642,790.77c-.018.072-.292-.006-.309.067-1.569,7,1.192,17.822,13.069,20.444.16.036.638-.55.8-.516C76.572,808.2,69.112,795.3,67.642,790.77Z" transform="translate(-66.931 -790.77)" fill="#f1c40f"/>
          </g>
          <g id="Group_10475" data-name="Group 10475" transform="translate(14.99 19.995)">
            <path id="Path_99834" data-name="Path 99834" d="M80.1,811.2l1.089-.45a3.288,3.288,0,0,1-.174,1.078c-.16.249-.864.612-1.181.438S79.816,811.132,80.1,811.2Z" transform="translate(-79.699 -810.747)" fill="#34495e"/>
          </g>
          <g id="Group_10476" data-name="Group 10476" transform="translate(3.204 2.624)">
            <path id="Path_99835" data-name="Path 99835" d="M68.692,794.066a.411.411,0,0,1-.581.123.446.446,0,0,1-.118-.6.41.41,0,0,1,.582-.122A.444.444,0,0,1,68.692,794.066Z" transform="translate(-67.924 -793.391)" fill="#f39c12"/>
          </g>
          <g id="Group_10477" data-name="Group 10477" transform="translate(2.678 4.284)">
            <path id="Path_99836" data-name="Path 99836" d="M68.038,795.61a.342.342,0,0,1-.483.1.371.371,0,0,1-.1-.5.342.342,0,0,1,.483-.1A.37.37,0,0,1,68.038,795.61Z" transform="translate(-67.398 -795.05)" fill="#f39c12"/>
          </g>
          <g id="Group_10478" data-name="Group 10478" transform="translate(4.302 5.897)">
            <path id="Path_99837" data-name="Path 99837" d="M70,797.525a.525.525,0,0,1-.744.157.569.569,0,0,1-.151-.772.526.526,0,0,1,.745-.156A.57.57,0,0,1,70,797.525Z" transform="translate(-69.021 -796.662)" fill="#f39c12"/>
          </g>
          <g id="Group_10479" data-name="Group 10479" transform="translate(5.376 7.433)">
            <path id="Path_99838" data-name="Path 99838" d="M70.685,798.715a.316.316,0,0,1-.446.094.341.341,0,0,1-.09-.462.313.313,0,0,1,.446-.094A.341.341,0,0,1,70.685,798.715Z" transform="translate(-70.094 -798.197)" fill="#f39c12"/>
          </g>
          <g id="Group_10480" data-name="Group 10480" transform="translate(6.251 8.303)">
            <path id="Path_99839" data-name="Path 99839" d="M71.4,799.445a.231.231,0,0,1-.327.069.25.25,0,0,1-.066-.339.231.231,0,0,1,.327-.069A.251.251,0,0,1,71.4,799.445Z" transform="translate(-70.968 -799.065)" fill="#f39c12"/>
          </g>
          <g id="Group_10481" data-name="Group 10481" transform="translate(3.834 7.726)">
            <path id="Path_99840" data-name="Path 99840" d="M69.308,799.151a.4.4,0,0,1-.571.121.435.435,0,0,1-.115-.59.4.4,0,0,1,.57-.121A.436.436,0,0,1,69.308,799.151Z" transform="translate(-68.553 -798.49)" fill="#f39c12"/>
          </g>
          <g id="Group_10482" data-name="Group 10482" transform="translate(7.366 10.508)">
            <path id="Path_99841" data-name="Path 99841" d="M72.514,801.648a.229.229,0,0,1-.326.069.25.25,0,0,1-.067-.339.23.23,0,0,1,.327-.068A.248.248,0,0,1,72.514,801.648Z" transform="translate(-72.082 -801.269)" fill="#f39c12"/>
          </g>
          <g id="Group_10483" data-name="Group 10483" transform="translate(8.207 13.03)">
            <ellipse id="Ellipse_49" data-name="Ellipse 49" cx="0.535" cy="0.517" rx="0.535" ry="0.517" transform="translate(0 1.07) rotate(-89.811)" fill="#f39c12"/>
          </g>
          <g id="Group_10484" data-name="Group 10484" transform="translate(9.528 14.311)">
            <path id="Path_99842" data-name="Path 99842" d="M74.636,805.414a.211.211,0,0,1-.3.063.229.229,0,0,1-.061-.309.21.21,0,0,1,.3-.063A.228.228,0,0,1,74.636,805.414Z" transform="translate(-74.243 -805.068)" fill="#f39c12"/>
          </g>
          <g id="Group_10485" data-name="Group 10485" transform="translate(10.668 15.19)">
            <path id="Path_99843" data-name="Path 99843" d="M75.973,806.466a.318.318,0,0,1-.447.094.343.343,0,0,1-.09-.463.315.315,0,0,1,.446-.094A.342.342,0,0,1,75.973,806.466Z" transform="translate(-75.381 -805.946)" fill="#f39c12"/>
          </g>
          <g id="Group_10486" data-name="Group 10486" transform="translate(11.628 16.22)">
            <path id="Path_99844" data-name="Path 99844" d="M76.845,807.419a.27.27,0,0,1-.382.08.293.293,0,0,1-.077-.4.271.271,0,0,1,.382-.08A.293.293,0,0,1,76.845,807.419Z" transform="translate(-76.34 -806.976)" fill="#f39c12"/>
          </g>
        </g>
        <g id="Group_10488" data-name="Group 10488" transform="translate(2.474)">
          <path id="Path_99845" data-name="Path 99845" d="M68.527,786.843c.287-.255.967-.121,1.265-.018a1.825,1.825,0,0,1,.818.519c.179.191.356.382.535.572a.636.636,0,0,1,.184.291.659.659,0,0,1-.016.257l-.051.257a2.955,2.955,0,0,1-.1.412,1.191,1.191,0,0,1-.987.81.927.927,0,0,1-.961-.764c.006.043-.312.294-.355.344a4.163,4.163,0,0,0-.276.36.808.808,0,0,0,.062.91c.051.065.116.134.109.217a.259.259,0,0,1-.121.171c-.171.133-.387.3-.561.133a.809.809,0,0,1-.168-.656q-.09.309-.178.621c-.052.179-.036.258-.221.238-.245-.027-.322-.3-.3-.511a3.768,3.768,0,0,1,.449-1.108,5.51,5.51,0,0,0,.729-2.332,1.505,1.505,0,0,1,.054-.589A.366.366,0,0,1,68.527,786.843Z" transform="translate(-67.194 -786.696)" fill="#f1c40f"/>
        </g>
        <g id="Group_10489" data-name="Group 10489" transform="translate(4.134 0.002)">
          <path id="Path_99846" data-name="Path 99846" d="M68.86,786.711a.556.556,0,0,1,.081.359.691.691,0,0,1-.081.3.666.666,0,0,0,.159.549,2.494,2.494,0,0,1,.047.255.873.873,0,0,1,.255.542,2.1,2.1,0,0,0,1.057.36,1.646,1.646,0,0,0,.917-.531c.006-.028.012-.056.017-.083a.658.658,0,0,0,.016-.257.637.637,0,0,0-.184-.291c-.179-.19-.356-.381-.535-.573a1.826,1.826,0,0,0-.818-.519A2.262,2.262,0,0,0,68.86,786.711Z" transform="translate(-68.853 -786.699)" fill="#ffde59"/>
        </g>
      </g>
    </g>
    <g id="Group_10626" data-name="Group 10626" transform="translate(139 199)">
      <g id="Group_10568" data-name="Group 10568">
        <rect id="Rectangle_818" data-name="Rectangle 818" width="57.451" height="57.452" fill="#34495e" stroke="#fff" stroke-width="2"/>
      </g>
      <g id="Group_10569" data-name="Group 10569" transform="translate(13.539 10.732)">
        <path id="Path_99913" data-name="Path 99913" d="M97.315,879.854,84.433,866.971l-1.218-.439L64.749,848.066,53.4,881.973l12.813,12.813h31.1Z" transform="translate(-53.403 -848.066)" fill="#e6e6e6" opacity="0.25"/>
      </g>
      <g id="Group_10586" data-name="Group 10586" transform="translate(13.401 9.826)">
        <g id="Group_10570" data-name="Group 10570" transform="translate(0 3.72)">
          <path id="Path_99914" data-name="Path 99914" d="M64.623,853.576v-2.7H57.016v2.7c0,3.358-3.751,5.814-3.751,10.954v16.923c0,1.516,3.383,2.745,7.556,2.745s7.555-1.229,7.555-2.745V864.53C68.375,859.391,64.623,856.934,64.623,853.576Z" transform="translate(-53.265 -850.878)" fill="#bdc3c7"/>
        </g>
        <g id="Group_10571" data-name="Group 10571" transform="translate(1.473 5.195)">
          <path id="Path_99915" data-name="Path 99915" d="M60.819,882.723c-3.6,0-5.7-.943-6.082-1.391v-16.8a11.491,11.491,0,0,1,1.982-5.944,10.2,10.2,0,0,0,1.771-5.01v-1.224h4.659v1.224a10.2,10.2,0,0,0,1.771,5.01,11.5,11.5,0,0,1,1.982,5.944v16.8C66.52,881.78,64.416,882.723,60.819,882.723Z" transform="translate(-54.737 -852.351)" fill="#d7dde3"/>
        </g>
        <g id="Group_10572" data-name="Group 10572" transform="translate(1.473 18.031)">
          <path id="Path_99916" data-name="Path 99916" d="M54.737,865.176V881.32c.381.448,2.485,1.391,6.082,1.391s5.7-.943,6.081-1.391V865.176Z" transform="translate(-54.737 -865.176)" fill="#ecf0f1"/>
        </g>
        <g id="Group_10578" data-name="Group 10578" transform="translate(1.473)">
          <g id="Group_10573" data-name="Group 10573" transform="translate(1.733 2.47)">
            <path id="Path_99917" data-name="Path 99917" d="M65.166,851.209c0,.873-1.947,1.58-4.348,1.58s-4.35-.708-4.35-1.58,1.948-1.58,4.35-1.58S65.166,850.337,65.166,851.209Z" transform="translate(-56.468 -849.629)" fill="#c0392b"/>
          </g>
          <g id="Group_10574" data-name="Group 10574" transform="translate(1.733 1.581)">
            <rect id="Rectangle_819" data-name="Rectangle 819" width="8.698" height="2.47" fill="#c0392b"/>
          </g>
          <g id="Group_10575" data-name="Group 10575" transform="translate(1.733)">
            <path id="Path_99918" data-name="Path 99918" d="M65.166,848.741c0,.872-1.947,1.579-4.348,1.579s-4.35-.708-4.35-1.579,1.948-1.58,4.35-1.58S65.166,847.869,65.166,848.741Z" transform="translate(-56.468 -847.161)" fill="#e74c3c"/>
          </g>
          <g id="Group_10576" data-name="Group 10576" transform="translate(3.025 0.469)">
            <path id="Path_99919" data-name="Path 99919" d="M63.873,848.631c0,.553-1.368,1-3.057,1s-3.058-.447-3.058-1,1.369-1,3.058-1S63.873,848.077,63.873,848.631Z" transform="translate(-57.759 -847.63)" fill="#f1c40f"/>
          </g>
          <g id="Group_10577" data-name="Group 10577" transform="translate(0 15.822)">
            <path id="Path_99920" data-name="Path 99920" d="M66.9,865.178c0,1.221-2.723,2.21-6.081,2.21s-6.082-.989-6.082-2.21,2.723-2.209,6.082-2.209S66.9,863.958,66.9,865.178Z" transform="translate(-54.737 -862.969)" fill="#fff"/>
          </g>
        </g>
        <g id="Group_10585" data-name="Group 10585" transform="translate(3.634 21.357)">
          <g id="Group_10579" data-name="Group 10579" transform="translate(0.157)">
            <path id="Path_99921" data-name="Path 99921" d="M58.119,869.031a.533.533,0,1,1-.533-.532A.534.534,0,0,1,58.119,869.031Z" transform="translate(-57.053 -868.499)" fill="#fff"/>
          </g>
          <g id="Group_10580" data-name="Group 10580" transform="translate(1.494 2.376)">
            <path id="Path_99922" data-name="Path 99922" d="M59.5,871.43a.557.557,0,1,1-.557-.557A.557.557,0,0,1,59.5,871.43Z" transform="translate(-58.389 -870.873)" fill="#fff"/>
          </g>
          <g id="Group_10581" data-name="Group 10581" transform="translate(0 4.471)">
            <path id="Path_99923" data-name="Path 99923" d="M58.032,873.534a.568.568,0,1,1-.569-.568A.569.569,0,0,1,58.032,873.534Z" transform="translate(-56.896 -872.966)" fill="#fff"/>
          </g>
          <g id="Group_10582" data-name="Group 10582" transform="translate(1.737 5.739)">
            <path id="Path_99924" data-name="Path 99924" d="M59.766,874.8a.568.568,0,1,1-.568-.569A.568.568,0,0,1,59.766,874.8Z" transform="translate(-58.631 -874.233)" fill="#fff"/>
          </g>
          <g id="Group_10583" data-name="Group 10583" transform="translate(3.409 6.875)">
            <path id="Path_99925" data-name="Path 99925" d="M61.371,875.9a.534.534,0,1,1-.534-.534A.534.534,0,0,1,61.371,875.9Z" transform="translate(-60.302 -875.368)" fill="#fff"/>
          </g>
          <g id="Group_10584" data-name="Group 10584" transform="translate(1.136 9.079)">
            <path id="Path_99926" data-name="Path 99926" d="M59.232,878.171a.6.6,0,1,1-.6-.6A.6.6,0,0,1,59.232,878.171Z" transform="translate(-58.031 -877.57)" fill="#fff"/>
          </g>
        </g>
      </g>
      <g id="Group_10625" data-name="Group 10625" transform="translate(25.252 27.472)">
        <g id="Group_10587" data-name="Group 10587" transform="translate(1.892 6.005)">
          <path id="Path_99927" data-name="Path 99927" d="M85.028,870.791h-17.7c-1.132,3.55,1.015,11.042,1.015,11.042,0,1.659,3.509,3.006,7.836,3.006s7.836-1.346,7.836-3.006C84.012,881.833,86.159,874.341,85.028,870.791Z" transform="translate(-66.996 -870.791)" fill="#8e44ad"/>
        </g>
        <g id="Group_10588" data-name="Group 10588" transform="translate(1.894 6.789)">
          <path id="Path_99928" data-name="Path 99928" d="M80.523,871.575q-3.867-.017-7.733.155-1.037.047-2.075.106c-.695.058-1.443-.014-2.145-.013a.643.643,0,0,0-.191.02.708.708,0,0,0-.29.233,3.949,3.949,0,0,1-1.083.843c-.017.472-.009.966.018,1.468a.461.461,0,0,1,.178.095c.274.244.113.707.253,1.046.19.458.824.505,1.307.392a2.152,2.152,0,0,1,1.45-.082,1.939,1.939,0,0,1,.746,1.155c.165.44.448.924.917.972.452.046.824-.343,1.257-.482a2.327,2.327,0,0,1,2.088.788,2.868,2.868,0,0,0,2.032,1c1.249-.143,1.839-1.915,3.093-2,1.143-.082,2.151,1.695,3.261.582a3.928,3.928,0,0,0,.684-1.214,1.864,1.864,0,0,1,.894-1.034c.015-.006.032-.009.047-.014a15.639,15.639,0,0,0,.009-3.863,3.939,3.939,0,0,0-.745-.1C83.17,871.6,81.846,871.581,80.523,871.575Z" transform="translate(-66.997 -871.574)" fill="#64307a"/>
        </g>
        <g id="Group_10589" data-name="Group 10589" transform="translate(0 5.663)">
          <path id="Path_99929" data-name="Path 99929" d="M86.736,872.789c.23.026.455.254.626-.106a1.017,1.017,0,0,0,.059-.475q-.018-.584-.038-1.166c-1.336.3-2.339-.509-3.631-.536-1.323-.027-2.647-.049-3.971-.055q-3.869-.018-7.734.155-1.037.047-2.074.106c-.7.059-1.444-.014-2.145-.013a.677.677,0,0,0-.191.02.712.712,0,0,0-.29.234,3.99,3.99,0,0,1-2.219,1.249c-.052.358-.039.781.291.959.314.168.751-.059,1.04.2.274.244.113.708.253,1.046.19.458.825.505,1.307.392a2.154,2.154,0,0,1,1.451-.082,1.941,1.941,0,0,1,.745,1.155c.165.44.449.924.917.972s.825-.343,1.258-.483a2.328,2.328,0,0,1,2.087.789,2.869,2.869,0,0,0,2.032,1c1.249-.143,1.84-1.915,3.094-2,1.142-.082,2.151,1.695,3.261.581a3.954,3.954,0,0,0,.683-1.214,1.869,1.869,0,0,1,.895-1.034c.644-.261,1.622.079,1.857-.79.076-.278-.079-.732.292-.885A.275.275,0,0,1,86.736,872.789Z" transform="translate(-65.105 -870.449)" fill="#f1df98"/>
        </g>
        <g id="Group_10590" data-name="Group 10590" transform="translate(0 5.913)">
          <path id="Path_99930" data-name="Path 99930" d="M65.333,873.1a.593.593,0,0,1,.191-.116,13.01,13.01,0,0,0,2.743-1.875c.171-.117.348-.254.529-.386-.326-.011-.653-.025-.969-.025a.673.673,0,0,0-.191.02.718.718,0,0,0-.29.233,3.983,3.983,0,0,1-2.219,1.25A.968.968,0,0,0,65.333,873.1Z" transform="translate(-65.105 -870.699)" fill="#d1ab6d"/>
        </g>
        <g id="Group_10591" data-name="Group 10591" transform="translate(1.498 5.877)">
          <path id="Path_99931" data-name="Path 99931" d="M69.056,872.889c.386-.486.836-.914,1.242-1.378a10.12,10.12,0,0,1,.637-.848c-.227.012-.454.022-.682.035a.522.522,0,0,1-.35.553c.176-.062-.2.155-.234.177q-.2.132-.4.267c-.282.192-.567.379-.841.582a22.175,22.175,0,0,1-1.825,1.338,5.434,5.434,0,0,0,.109.789.843.843,0,0,0,.82.441C68.1,874.239,68.538,873.541,69.056,872.889Z" transform="translate(-66.602 -870.663)" fill="#d1ab6d"/>
        </g>
        <g id="Group_10592" data-name="Group 10592" transform="translate(4.504 5.778)">
          <path id="Path_99932" data-name="Path 99932" d="M70.777,876.706a13.63,13.63,0,0,1,2.576-6.141c-.436.015-.874.023-1.31.042-.1,0-.2.011-.3.015a.5.5,0,0,1,.078.6,6.238,6.238,0,0,1-.717.948c-.567.84-1.016,1.756-1.5,2.651a2.324,2.324,0,0,1,.607,1.049A1.762,1.762,0,0,0,70.777,876.706Z" transform="translate(-69.605 -870.564)" fill="#d1ab6d"/>
        </g>
        <g id="Group_10593" data-name="Group 10593" transform="translate(7.9 5.664)">
          <path id="Path_99933" data-name="Path 99933" d="M83.565,871.548a.432.432,0,0,1-.353-.595c-.089-.007-.178-.018-.268-.021a.5.5,0,0,1-.49-.444c-.894-.015-1.787-.033-2.679-.037-1.868-.009-3.734.028-5.6.086a.441.441,0,0,1,.105.476c-.313.808-.6,1.624-.887,2.442A19.921,19.921,0,0,1,73,876.321a3.214,3.214,0,0,1,1.472.826,5.694,5.694,0,0,0,1.079.8c-.284-1.6-.27-3.238-.507-4.86a.574.574,0,0,1,.538-.649.478.478,0,0,1,.636-.434.5.5,0,0,1,.895.17c.38,1.6,1.579,2.713,2.549,3.979.78-.009,1.5.808,2.231.931a8.637,8.637,0,0,1-.759-1.038,19.419,19.419,0,0,1-1.991-3.213c-.155-.4.2-.658.544-.628l-.027-.05c-.306-.591.567-1.109.89-.55a.476.476,0,0,1,.42.044,3.044,3.044,0,0,1,.752.8.554.554,0,0,1,.645-.645c.016,0,.029.008.044.012a.5.5,0,0,1,.633-.392c.985.257,1.826.874,2.8,1.185a6.607,6.607,0,0,1,.666.247.387.387,0,0,1,.079-.048.275.275,0,0,1,.146-.018c.23.026.455.254.626-.106a1.017,1.017,0,0,0,.059-.475L87.408,872A20.167,20.167,0,0,1,83.565,871.548Z" transform="translate(-72.998 -870.45)" fill="#d1ab6d"/>
        </g>
        <g id="Group_10594" data-name="Group 10594" transform="translate(16.816 7.957)">
          <path id="Path_99934" data-name="Path 99934" d="M84.4,873.977a15.968,15.968,0,0,0-2.322-1.163.507.507,0,0,1-.172-.073c.053.087.107.174.159.263.668.573,1.339,1.142,2.032,1.685a1.134,1.134,0,0,1,.329-.21,4.776,4.776,0,0,1,1.066-.165A8.987,8.987,0,0,1,84.4,873.977Z" transform="translate(-81.906 -872.741)" fill="#d1ab6d"/>
        </g>
        <g id="Group_10595" data-name="Group 10595" transform="translate(2.222 2.61)">
          <path id="Path_99935" data-name="Path 99935" d="M81.83,868.183a20.784,20.784,0,0,0-11.307,0h-3.2v2.611c0,1.875,3.963,3.4,8.851,3.4s8.852-1.52,8.852-3.4v-2.611Z" transform="translate(-67.325 -867.399)" fill="#f39c12"/>
        </g>
        <g id="Group_10596" data-name="Group 10596" transform="translate(2.222)">
          <path id="Path_99936" data-name="Path 99936" d="M85.028,868.185c0,1.875-3.964,3.394-8.852,3.394s-8.851-1.519-8.851-3.394,3.963-3.394,8.851-3.394S85.028,866.31,85.028,868.185Z" transform="translate(-67.325 -864.791)" fill="#f1c40f"/>
        </g>
        <g id="Group_10597" data-name="Group 10597" transform="translate(15.038 2.001)">
          <path id="Path_99937" data-name="Path 99937" d="M80.13,869.726c1-.658,1.993-1.3,2.946-1.921.441-.289.89-.566,1.333-.851-.056-.056-.115-.11-.179-.164q-.8.542-1.588,1.1C81.792,868.484,80.959,869.1,80.13,869.726Z" transform="translate(-80.13 -866.79)" fill="#ffde59"/>
        </g>
        <g id="Group_10598" data-name="Group 10598" transform="translate(2.222)">
          <path id="Path_99938" data-name="Path 99938" d="M71.592,871.085c.566-.485,1.145-.958,1.728-1.413a57.622,57.622,0,0,1,5.7-4.7,21.868,21.868,0,0,0-2.841-.182c-4.888,0-8.851,1.519-8.851,3.394C67.325,869.415,69.038,870.489,71.592,871.085Z" transform="translate(-67.325 -864.791)" fill="#ffde59"/>
        </g>
        <g id="Group_10599" data-name="Group 10599" transform="translate(12.958 1.144)">
          <path id="Path_99939" data-name="Path 99939" d="M82.881,866.443c.133-.091.269-.179.4-.271-.158-.082-.326-.162-.5-.238-1.24,1.018-2.443,2.06-3.6,3.064-.382.332-.752.679-1.129,1.016C79.628,868.782,81.233,867.586,82.881,866.443Z" transform="translate(-78.051 -865.934)" fill="#ffde59"/>
        </g>
        <g id="Group_10600" data-name="Group 10600" transform="translate(9.139 3.344)">
          <path id="Path_99940" data-name="Path 99940" d="M74.869,871.536c1.219-1.159,2.455-2.3,3.729-3.4-1.512,1.048-2.943,2.2-4.362,3.361C74.444,871.511,74.655,871.524,74.869,871.536Z" transform="translate(-74.236 -868.132)" fill="#ffde59"/>
        </g>
        <g id="Group_10601" data-name="Group 10601" transform="translate(16.745 4.98)">
          <path id="Path_99941" data-name="Path 99941" d="M83.433,869.767c-.2.127-.4.252-.6.378-.333.211-.665.426-1,.639.074-.023.142-.05.214-.074a.281.281,0,0,1,.032-.022C82.529,870.377,82.981,870.072,83.433,869.767Z" transform="translate(-81.835 -869.767)" fill="#ffde59"/>
        </g>
        <g id="Group_10602" data-name="Group 10602" transform="translate(4.137 13.03)">
          <path id="Path_99942" data-name="Path 99942" d="M70.249,878.314a.505.505,0,1,1-.5-.505A.5.5,0,0,1,70.249,878.314Z" transform="translate(-69.238 -877.809)" fill="#64307a"/>
        </g>
        <g id="Group_10603" data-name="Group 10603" transform="translate(6.053 14.986)">
          <path id="Path_99943" data-name="Path 99943" d="M71.959,880.166a.4.4,0,1,1-.4-.4A.4.4,0,0,1,71.959,880.166Z" transform="translate(-71.153 -879.764)" fill="#64307a"/>
        </g>
        <g id="Group_10604" data-name="Group 10604" transform="translate(6.859 14.499)">
          <path id="Path_99944" data-name="Path 99944" d="M72.444,879.521a.243.243,0,1,1-.243-.244A.244.244,0,0,1,72.444,879.521Z" transform="translate(-71.958 -879.277)" fill="#64307a"/>
        </g>
        <g id="Group_10605" data-name="Group 10605" transform="translate(4.504 16.289)">
          <path id="Path_99945" data-name="Path 99945" d="M71.061,881.795a.728.728,0,1,1-.728-.729A.729.729,0,0,1,71.061,881.795Z" transform="translate(-69.605 -881.066)" fill="#64307a"/>
        </g>
        <g id="Group_10606" data-name="Group 10606" transform="translate(6.628 16.827)">
          <path id="Path_99946" data-name="Path 99946" d="M72.2,881.839a.237.237,0,1,1-.237-.236A.236.236,0,0,1,72.2,881.839Z" transform="translate(-71.727 -881.603)" fill="#64307a"/>
        </g>
        <g id="Group_10607" data-name="Group 10607" transform="translate(9.772 16.52)">
          <path id="Path_99947" data-name="Path 99947" d="M76.169,881.946a.651.651,0,1,1-.651-.65A.651.651,0,0,1,76.169,881.946Z" transform="translate(-74.868 -881.296)" fill="#64307a"/>
        </g>
        <g id="Group_10608" data-name="Group 10608" transform="translate(11.073 15.791)">
          <path id="Path_99948" data-name="Path 99948" d="M76.439,880.7a.136.136,0,1,1-.136-.135A.136.136,0,0,1,76.439,880.7Z" transform="translate(-76.168 -880.568)" fill="#64307a"/>
        </g>
        <g id="Group_10609" data-name="Group 10609" transform="translate(14.104 16.52)">
          <path id="Path_99949" data-name="Path 99949" d="M80.614,882a.709.709,0,1,1-.71-.709A.71.71,0,0,1,80.614,882Z" transform="translate(-79.196 -881.296)" fill="#64307a"/>
        </g>
        <g id="Group_10610" data-name="Group 10610" transform="translate(15.109 15.926)">
          <path id="Path_99950" data-name="Path 99950" d="M80.727,880.967a.263.263,0,1,1-.263-.264A.263.263,0,0,1,80.727,880.967Z" transform="translate(-80.201 -880.703)" fill="#64307a"/>
        </g>
        <g id="Group_10611" data-name="Group 10611" transform="translate(14.812 14.039)">
          <path id="Path_99951" data-name="Path 99951" d="M81.188,879.461a.642.642,0,1,1-.643-.643A.643.643,0,0,1,81.188,879.461Z" transform="translate(-79.904 -878.818)" fill="#64307a"/>
        </g>
        <g id="Group_10612" data-name="Group 10612" transform="translate(17.745 14.986)">
          <path id="Path_99952" data-name="Path 99952" d="M83.639,880.166a.4.4,0,1,1-.4-.4A.4.4,0,0,1,83.639,880.166Z" transform="translate(-82.834 -879.764)" fill="#64307a"/>
        </g>
        <g id="Group_10613" data-name="Group 10613" transform="translate(17.745 16.52)">
          <path id="Path_99953" data-name="Path 99953" d="M83.236,881.5a.2.2,0,1,1-.2-.2A.2.2,0,0,1,83.236,881.5Z" transform="translate(-82.834 -881.296)" fill="#64307a"/>
        </g>
        <g id="Group_10614" data-name="Group 10614" transform="translate(13.107 14.743)">
          <path id="Path_99954" data-name="Path 99954" d="M78.814,879.827a.307.307,0,1,1-.307-.306A.307.307,0,0,1,78.814,879.827Z" transform="translate(-78.2 -879.521)" fill="#64307a"/>
        </g>
        <g id="Group_10615" data-name="Group 10615" transform="translate(12.11 16.52)">
          <path id="Path_99955" data-name="Path 99955" d="M77.78,881.583a.288.288,0,1,1-.288-.287A.288.288,0,0,1,77.78,881.583Z" transform="translate(-77.204 -881.296)" fill="#9b59b6"/>
        </g>
        <g id="Group_10616" data-name="Group 10616" transform="translate(8.699 14.743)">
          <path id="Path_99956" data-name="Path 99956" d="M74.6,879.923a.4.4,0,1,1-.4-.4A.4.4,0,0,1,74.6,879.923Z" transform="translate(-73.796 -879.521)" fill="#9b59b6"/>
        </g>
        <g id="Group_10617" data-name="Group 10617" transform="translate(8.252 16.721)">
          <path id="Path_99957" data-name="Path 99957" d="M73.8,881.72a.223.223,0,1,1-.223-.223A.223.223,0,0,1,73.8,881.72Z" transform="translate(-73.35 -881.497)" fill="#9b59b6"/>
        </g>
        <g id="Group_10618" data-name="Group 10618" transform="translate(11.073 18.205)">
          <path id="Path_99958" data-name="Path 99958" d="M77.2,883.5a.518.518,0,1,1-.518-.52A.519.519,0,0,1,77.2,883.5Z" transform="translate(-76.168 -882.98)" fill="#9b59b6"/>
        </g>
        <g id="Group_10619" data-name="Group 10619" transform="translate(13.107 17.299)">
          <path id="Path_99959" data-name="Path 99959" d="M78.646,882.3a.223.223,0,1,1-.223-.223A.224.224,0,0,1,78.646,882.3Z" transform="translate(-78.2 -882.075)" fill="#9b59b6"/>
        </g>
        <g id="Group_10620" data-name="Group 10620" transform="translate(16.518 15.791)">
          <path id="Path_99960" data-name="Path 99960" d="M82.375,880.951a.383.383,0,1,1-.383-.383A.383.383,0,0,1,82.375,880.951Z" transform="translate(-81.608 -880.568)" fill="#9b59b6"/>
        </g>
        <g id="Group_10621" data-name="Group 10621" transform="translate(7.9 13.535)">
          <path id="Path_99961" data-name="Path 99961" d="M73.8,878.714a.4.4,0,1,1-.4-.4A.4.4,0,0,1,73.8,878.714Z" transform="translate(-72.998 -878.314)" fill="#9b59b6"/>
        </g>
        <g id="Group_10622" data-name="Group 10622" transform="translate(3.692 15.145)">
          <path id="Path_99962" data-name="Path 99962" d="M69.967,880.509a.587.587,0,1,1-.587-.586A.587.587,0,0,1,69.967,880.509Z" transform="translate(-68.794 -879.923)" fill="#9b59b6"/>
        </g>
        <g id="Group_10623" data-name="Group 10623" transform="translate(3.103 12.112)">
          <path id="Path_99963" data-name="Path 99963" d="M68.933,877.256a.364.364,0,1,1-.364-.364A.364.364,0,0,1,68.933,877.256Z" transform="translate(-68.205 -876.892)" fill="#9b59b6"/>
        </g>
        <g id="Group_10624" data-name="Group 10624" transform="translate(7.102 17.938)">
          <path id="Path_99964" data-name="Path 99964" d="M72.8,883.012a.3.3,0,1,1-.3-.3A.3.3,0,0,1,72.8,883.012Z" transform="translate(-72.201 -882.713)" fill="#9b59b6"/>
        </g>
      </g>
    </g>
    <g id="Group_10567" data-name="Group 10567" transform="translate(214 199)">
      <g id="Group_10492" data-name="Group 10492">
        <rect id="Rectangle_816" data-name="Rectangle 816" width="57.452" height="57.451" fill="#f39c12" stroke="#fff" stroke-width="2"/>
      </g>
      <g id="Group_10493" data-name="Group 10493" transform="translate(12.015 16.619)">
        <path id="Path_99847" data-name="Path 99847" d="M286.521,862.548l-8.71-8.71-36.727,16.977,9.568,9.568L245.07,884.5l10.171,10.17h31.28Z" transform="translate(-241.084 -853.838)" fill="#e6e6e6" opacity="0.25"/>
      </g>
      <g id="Group_10514" data-name="Group 10514" transform="translate(9.89 13.734)">
        <g id="Group_10494" data-name="Group 10494" transform="translate(0 3.19)">
          <path id="Path_99848" data-name="Path 99848" d="M249.069,873.8a13.83,13.83,0,0,1-2.523-.23c-5.43-1.009-8.458-5.138-7.363-10.041,1.171-5.25,7.231-9.374,13.8-9.388,5.27,0,9.833,2.408,11.132,5.856a5.812,5.812,0,0,1-1.578,6.35,13.166,13.166,0,0,1-3.057,1.969,12.429,12.429,0,0,0-1.89,1.112,7.447,7.447,0,0,0-1.067,1.123,7.4,7.4,0,0,1-3.407,2.591A12.116,12.116,0,0,1,249.069,873.8Z" transform="translate(-238.961 -854.142)" fill="#a8572d"/>
        </g>
        <g id="Group_10495" data-name="Group 10495">
          <path id="Path_99849" data-name="Path 99849" d="M249.069,870.616a13.723,13.723,0,0,1-2.523-.231c-5.43-1.009-8.458-5.138-7.363-10.04,1.171-5.251,7.231-9.374,13.8-9.389,5.27,0,9.833,2.408,11.132,5.857a5.811,5.811,0,0,1-1.578,6.349,13.135,13.135,0,0,1-3.057,1.969,12.444,12.444,0,0,0-1.89,1.112,7.444,7.444,0,0,0-1.067,1.124,7.405,7.405,0,0,1-3.407,2.59A12.122,12.122,0,0,1,249.069,870.616Z" transform="translate(-238.961 -850.955)" fill="#e3976e"/>
        </g>
        <g id="Group_10496" data-name="Group 10496" transform="translate(1.287 1.313)">
          <path id="Path_99850" data-name="Path 99850" d="M249.068,869.958a12.185,12.185,0,0,1-2.226-.2c-5.54-1.03-7.2-5.344-6.407-8.916,1.051-4.714,6.68-8.56,12.547-8.572,3.853,0,8.575,1.61,9.907,5.147a4.982,4.982,0,0,1-1.34,5.449,11.975,11.975,0,0,1-2.78,1.776,13.173,13.173,0,0,0-2.089,1.24,8.06,8.06,0,0,0-1.232,1.283,6.232,6.232,0,0,1-2.873,2.229A10.525,10.525,0,0,1,249.068,869.958Z" transform="translate(-240.247 -852.267)" fill="#ecf0f1"/>
        </g>
        <g id="Group_10497" data-name="Group 10497" transform="translate(2.125 1.64)">
          <path id="Path_99851" data-name="Path 99851" d="M241.269,860.622c.95-4.256,6.013-8.016,11.714-8.028,3.887-.008,7.956,1.662,9.092,4.676a4.467,4.467,0,0,1-1.182,4.847c-1.318,1.242-3.371,1.836-4.818,2.972s-1.873,2.665-3.856,3.377a10.323,10.323,0,0,1-5.181.322C242.174,867.884,240.481,864.148,241.269,860.622Z" transform="translate(-241.084 -852.594)" fill="#c0392b"/>
        </g>
        <g id="Group_10498" data-name="Group 10498" transform="translate(6.867 5.741)">
          <path id="Path_99852" data-name="Path 99852" d="M251.393,856.691a2.236,2.236,0,0,0-1.538,1.867,4.032,4.032,0,0,1-.793,2.22,7.672,7.672,0,0,1-2,1.142c-.693.359-1.342.929-1.228,1.567a6.641,6.641,0,0,1,5.8.465,7.042,7.042,0,0,0,1.165.72c.938.38,2.18-.189,1.318-.916a10.831,10.831,0,0,1-2.165-1.927A5.076,5.076,0,0,1,251.393,856.691Z" transform="translate(-245.822 -856.691)" fill="#ecf0f1"/>
        </g>
        <g id="Group_10499" data-name="Group 10499" transform="translate(12.878 3.577)">
          <path id="Path_99853" data-name="Path 99853" d="M257.037,854.537c2.31.105,4.371,1.641,4.6,3.423.188,1.5-.775,2.933-1.9,4.158a4.872,4.872,0,0,1-3.052,1.788,4.426,4.426,0,0,1-3.584-1.6C250.681,859.564,251.567,854.29,257.037,854.537Z" transform="translate(-251.827 -854.529)" fill="#e74c3c"/>
        </g>
        <g id="Group_10500" data-name="Group 10500" transform="translate(3.085 2.207)">
          <path id="Path_99854" data-name="Path 99854" d="M252.066,854.857a4.977,4.977,0,0,0,.994-.452.7.7,0,0,0,.359-.8c-.218-.507-1.143-.505-1.809-.363a13.932,13.932,0,0,0-6.669,3.381,9.015,9.015,0,0,0-2.885,5.752,1.809,1.809,0,0,0,.128.985,1.159,1.159,0,0,0,.936.609c.734.051,1.214-.552,1.608-1.034a7.347,7.347,0,0,1,2.626-1.968c1.171-.539,1.645-.506,1.575-1.618A4.631,4.631,0,0,1,252.066,854.857Z" transform="translate(-242.043 -853.16)" fill="#e74c3c"/>
        </g>
        <g id="Group_10501" data-name="Group 10501" transform="translate(3.992 12.49)">
          <path id="Path_99855" data-name="Path 99855" d="M248.606,863.441a6.556,6.556,0,0,1,4.569,2.135,1.45,1.45,0,0,1,.425,1.315c-.2.6-1.011.933-1.77,1.122a12.362,12.362,0,0,1-6.894-.305,3.539,3.539,0,0,1-1.719-1.063C241.729,864.593,246.82,863.328,248.606,863.441Z" transform="translate(-242.949 -863.434)" fill="#e74c3c"/>
        </g>
        <g id="Group_10502" data-name="Group 10502" transform="translate(16.283 11.279)">
          <path id="Path_99856" data-name="Path 99856" d="M255.762,862.43a.276.276,0,1,1-.267-.206A.243.243,0,0,1,255.762,862.43Z" transform="translate(-255.229 -862.224)" fill="#c0392b"/>
        </g>
        <g id="Group_10503" data-name="Group 10503" transform="translate(17.464 10.364)">
          <path id="Path_99857" data-name="Path 99857" d="M257.59,861.768a.61.61,0,1,1-.59-.458A.536.536,0,0,1,257.59,861.768Z" transform="translate(-256.409 -861.31)" fill="#c0392b"/>
        </g>
        <g id="Group_10504" data-name="Group 10504" transform="translate(19.293 10.365)">
          <ellipse id="Ellipse_50" data-name="Ellipse 50" cx="0.209" cy="0.162" rx="0.209" ry="0.162" fill="#c0392b"/>
        </g>
        <g id="Group_10505" data-name="Group 10505" transform="translate(15.453 9.509)">
          <path id="Path_99858" data-name="Path 99858" d="M255.5,860.883a.571.571,0,1,1-.552-.427A.5.5,0,0,1,255.5,860.883Z" transform="translate(-254.4 -860.456)" fill="#c0392b"/>
        </g>
        <g id="Group_10506" data-name="Group 10506" transform="translate(7.14 8.831)">
          <path id="Path_99859" data-name="Path 99859" d="M246.78,860.043a.354.354,0,1,1-.343-.265A.312.312,0,0,1,246.78,860.043Z" transform="translate(-246.095 -859.778)" fill="#c0392b"/>
        </g>
        <g id="Group_10507" data-name="Group 10507" transform="translate(7.825 7.976)">
          <path id="Path_99860" data-name="Path 99860" d="M247.162,859.072a.2.2,0,1,1-.191-.148A.175.175,0,0,1,247.162,859.072Z" transform="translate(-246.779 -858.924)" fill="#c0392b"/>
        </g>
        <g id="Group_10508" data-name="Group 10508" transform="translate(8.55 8.478)">
          <path id="Path_99861" data-name="Path 99861" d="M248.3,859.734a.413.413,0,1,1-.4-.309A.364.364,0,0,1,248.3,859.734Z" transform="translate(-247.503 -859.425)" fill="#c0392b"/>
        </g>
        <g id="Group_10509" data-name="Group 10509" transform="translate(6.111 14.493)">
          <path id="Path_99862" data-name="Path 99862" d="M245.663,865.666a.308.308,0,1,1-.3-.231A.271.271,0,0,1,245.663,865.666Z" transform="translate(-245.066 -865.435)" fill="#c0392b"/>
        </g>
        <g id="Group_10510" data-name="Group 10510" transform="translate(6.866 13.432)">
          <path id="Path_99863" data-name="Path 99863" d="M247.041,864.846a.63.63,0,1,1-.61-.471A.554.554,0,0,1,247.041,864.846Z" transform="translate(-245.821 -864.375)" fill="#c0392b"/>
        </g>
        <g id="Group_10511" data-name="Group 10511" transform="translate(8.55 13.842)">
          <path id="Path_99864" data-name="Path 99864" d="M247.9,864.94a.206.206,0,1,1-.2-.155A.183.183,0,0,1,247.9,864.94Z" transform="translate(-247.503 -864.785)" fill="#c0392b"/>
        </g>
        <g id="Group_10512" data-name="Group 10512" transform="translate(16.283 4.967)">
          <ellipse id="Ellipse_51" data-name="Ellipse 51" cx="0.4" cy="0.31" rx="0.4" ry="0.31" fill="#c0392b"/>
        </g>
        <g id="Group_10513" data-name="Group 10513" transform="translate(20.855 6.737)">
          <path id="Path_99865" data-name="Path 99865" d="M260.368,857.907a.295.295,0,1,1-.285-.221A.26.26,0,0,1,260.368,857.907Z" transform="translate(-259.797 -857.686)" fill="#c0392b"/>
        </g>
      </g>
      <g id="Group_10546" data-name="Group 10546" transform="translate(15.309 28.743)">
        <g id="Group_10515" data-name="Group 10515" transform="translate(0 0.561)">
          <path id="Path_99866" data-name="Path 99866" d="M245.882,885.081a2.767,2.767,0,0,1-1.5-2.461,1.4,1.4,0,0,1,.6-1.324,5.4,5.4,0,0,1,1.946-.434,9.672,9.672,0,0,0,1.493-.235,5,5,0,0,0,2.911-2.525,22.191,22.191,0,0,0,1.943-3.976,15.28,15.28,0,0,1,2.642-4.789c3.508-3.788,9.129-3.062,14.167-1.852.593.143,1.109.267,1.6.412,1.973.584,3.065,1.364,2.805,3.627a16.925,16.925,0,0,1-4.054,8.765,18.378,18.378,0,0,1-3.175,2.971c-.084.062-.17.131-.26.2-.277.219-.622.491-.836.453h0a5.041,5.041,0,0,1-1.288-1.069c-.214-.217-.408-.411-.56-.54a4.107,4.107,0,0,1-1.024-1.1,1,1,0,0,1-.016-1.025l-.728-.82c-1.834,1.11-3.823,1.14-5.93,1.173-.4.006-.809.012-1.22.026-1.765.057-4.311.329-6.044,2.014a10.879,10.879,0,0,0-.871.987,3.952,3.952,0,0,1-1.777,1.508A1.452,1.452,0,0,1,245.882,885.081Z" transform="translate(-244.375 -866.511)" fill="#eaeff0"/>
        </g>
        <g id="Group_10516" data-name="Group 10516" transform="translate(0 13.682)">
          <path id="Path_99867" data-name="Path 99867" d="M252.33,879.842l.038-.222a.985.985,0,0,1-.795.069,25.75,25.75,0,0,0-2.482,1.747,18.363,18.363,0,0,1-1.676,1.786c-1.422,1.052-2.941.007-2.359-1.7a.877.877,0,0,1,.246-.371,2.792,2.792,0,0,0-.327.134,1.4,1.4,0,0,0-.6,1.324,2.767,2.767,0,0,0,1.5,2.461,1.452,1.452,0,0,0,.813-.008,3.951,3.951,0,0,0,1.777-1.508,10.878,10.878,0,0,1,.871-.987,6.972,6.972,0,0,1,3.472-1.719A.938.938,0,0,1,252.33,879.842Z" transform="translate(-244.375 -879.62)" fill="#bdc3c7"/>
        </g>
        <g id="Group_10517" data-name="Group 10517" transform="translate(4.98)">
          <path id="Path_99868" data-name="Path 99868" d="M275.029,871.587c.389-3.41-2.089-3.986-4.827-4.644-4.849-1.166-10.9-2.094-14.706,2.014-2.269,2.451-2.787,6.054-4.64,8.835a6.642,6.642,0,0,1-1.5,1.781,6,6,0,0,0,2.108,2.289,11.133,11.133,0,0,1,3.941-.741c2.648-.085,5.1.125,7.422-1.279a1.536,1.536,0,0,0-.039,1.63,4.523,4.523,0,0,0,1.159,1.261c.5.419,1.473,1.62,2.111,1.732.561.1,1.081-.429,1.523-.755a19.015,19.015,0,0,0,3.271-3.059A17.617,17.617,0,0,0,275.029,871.587Z" transform="translate(-249.351 -865.951)" fill="#f1bc91"/>
        </g>
        <g id="Group_10518" data-name="Group 10518" transform="translate(5.666 4.207)">
          <path id="Path_99869" data-name="Path 99869" d="M275.028,871.583a4.873,4.873,0,0,0-.03-1.429,12.112,12.112,0,0,1-1.106,3.951c-.674,1.625-1.5,3.747-3.076,4.708-1.892,1.151-3.689-.333-3.741-2.212a4.277,4.277,0,0,1-3.324-.8c-.445-.347-1.977-1.882-1.5-2.431-1.328,1.537-2.411,3.156-4.194,4.224a28.115,28.115,0,0,1-7.643,3.011.915.915,0,0,1-.376.015,10.346,10.346,0,0,0,1.422,1.241,11.135,11.135,0,0,1,3.941-.741c2.648-.085,5.1.125,7.422-1.279a1.536,1.536,0,0,0-.039,1.63,4.524,4.524,0,0,0,1.159,1.261c.5.419,1.473,1.619,2.111,1.732.561.1,1.081-.429,1.523-.755a19.023,19.023,0,0,0,3.271-3.059A17.616,17.616,0,0,0,275.028,871.583Z" transform="translate(-250.036 -870.154)" fill="#e3976e"/>
        </g>
        <g id="Group_10519" data-name="Group 10519" transform="translate(9.56 11.494)">
          <path id="Path_99870" data-name="Path 99870" d="M254.749,877.974a.42.42,0,1,1-.282-.521A.421.421,0,0,1,254.749,877.974Z" transform="translate(-253.927 -877.435)" fill="#ffcea6"/>
        </g>
        <g id="Group_10520" data-name="Group 10520" transform="translate(11.574 11.337)">
          <path id="Path_99871" data-name="Path 99871" d="M256.312,877.522a.191.191,0,1,1-.128-.237A.19.19,0,0,1,256.312,877.522Z" transform="translate(-255.939 -877.277)" fill="#ffcea6"/>
        </g>
        <g id="Group_10521" data-name="Group 10521" transform="translate(10.947 9.817)">
          <path id="Path_99872" data-name="Path 99872" d="M256.022,876.224a.362.362,0,1,1-.245-.451A.364.364,0,0,1,256.022,876.224Z" transform="translate(-255.312 -875.758)" fill="#ffcea6"/>
        </g>
        <g id="Group_10522" data-name="Group 10522" transform="translate(12.655 9.567)">
          <path id="Path_99873" data-name="Path 99873" d="M257.392,875.753a.191.191,0,1,1-.366-.108.191.191,0,0,1,.366.108Z" transform="translate(-257.019 -875.509)" fill="#ffcea6"/>
        </g>
        <g id="Group_10523" data-name="Group 10523" transform="translate(13.817 9.298)">
          <path id="Path_99874" data-name="Path 99874" d="M258.795,875.643a.314.314,0,1,1-.212-.39A.313.313,0,0,1,258.795,875.643Z" transform="translate(-258.179 -875.24)" fill="#ffcea6"/>
        </g>
        <g id="Group_10524" data-name="Group 10524" transform="translate(14.042 7.75)">
          <path id="Path_99875" data-name="Path 99875" d="M258.668,873.866a.135.135,0,1,1-.091-.167A.137.137,0,0,1,258.668,873.866Z" transform="translate(-258.405 -873.694)" fill="#ffcea6"/>
        </g>
        <g id="Group_10525" data-name="Group 10525" transform="translate(13.429 6.43)">
          <path id="Path_99876" data-name="Path 99876" d="M258.128,872.6a.172.172,0,1,1-.329-.1.171.171,0,0,1,.213-.116A.173.173,0,0,1,258.128,872.6Z" transform="translate(-257.792 -872.375)" fill="#ffcea6"/>
        </g>
        <g id="Group_10526" data-name="Group 10526" transform="translate(15.447 7.058)">
          <path id="Path_99877" data-name="Path 99877" d="M260.321,873.338a.262.262,0,1,1-.177-.325A.261.261,0,0,1,260.321,873.338Z" transform="translate(-259.808 -873.002)" fill="#ffcea6"/>
        </g>
        <g id="Group_10527" data-name="Group 10527" transform="translate(15.619 8.378)">
          <path id="Path_99878" data-name="Path 99878" d="M260.364,874.572a.2.2,0,0,1-.243.132.2.2,0,1,1,.243-.132Z" transform="translate(-259.98 -874.321)" fill="#ffcea6"/>
        </g>
        <g id="Group_10528" data-name="Group 10528" transform="translate(16.892 6.154)">
          <path id="Path_99879" data-name="Path 99879" d="M261.888,872.515a.324.324,0,1,1-.219-.4A.325.325,0,0,1,261.888,872.515Z" transform="translate(-261.252 -872.099)" fill="#ffcea6"/>
        </g>
        <g id="Group_10529" data-name="Group 10529" transform="translate(15.763 4.853)">
          <path id="Path_99880" data-name="Path 99880" d="M260.919,871.321a.406.406,0,1,1-.274-.5A.406.406,0,0,1,260.919,871.321Z" transform="translate(-260.124 -870.799)" fill="#ffcea6"/>
        </g>
        <g id="Group_10530" data-name="Group 10530" transform="translate(18.005 4.547)">
          <path id="Path_99881" data-name="Path 99881" d="M263.3,871.1a.476.476,0,1,1-.321-.591A.478.478,0,0,1,263.3,871.1Z" transform="translate(-262.364 -870.493)" fill="#ffcea6"/>
        </g>
        <g id="Group_10531" data-name="Group 10531" transform="translate(18.498 6.451)">
          <path id="Path_99882" data-name="Path 99882" d="M263.312,872.694a.233.233,0,1,1-.157-.289A.234.234,0,0,1,263.312,872.694Z" transform="translate(-262.856 -872.395)" fill="#ffcea6"/>
        </g>
        <g id="Group_10532" data-name="Group 10532" transform="translate(19.645 7.391)">
          <path id="Path_99883" data-name="Path 99883" d="M265.123,874.069a.572.572,0,1,1-.386-.711A.571.571,0,0,1,265.123,874.069Z" transform="translate(-264.002 -873.335)" fill="#ffcea6"/>
        </g>
        <g id="Group_10533" data-name="Group 10533" transform="translate(19.028 8.362)">
          <path id="Path_99884" data-name="Path 99884" d="M264.283,874.894a.458.458,0,1,1-.308-.57A.457.457,0,0,1,264.283,874.894Z" transform="translate(-263.386 -874.305)" fill="#ffcea6"/>
        </g>
        <g id="Group_10534" data-name="Group 10534" transform="translate(21.279 8.932)">
          <path id="Path_99885" data-name="Path 99885" d="M265.971,875.1a.172.172,0,0,1-.213.115.171.171,0,1,1,.213-.115Z" transform="translate(-265.635 -874.874)" fill="#ffcea6"/>
        </g>
        <g id="Group_10535" data-name="Group 10535" transform="translate(20.991 6.526)">
          <path id="Path_99886" data-name="Path 99886" d="M265.721,872.716a.191.191,0,1,1-.128-.237A.193.193,0,0,1,265.721,872.716Z" transform="translate(-265.348 -872.471)" fill="#ffcea6"/>
        </g>
        <g id="Group_10536" data-name="Group 10536" transform="translate(21.275 5.175)">
          <path id="Path_99887" data-name="Path 99887" d="M266.9,871.953a.648.648,0,1,1-.437-.806A.648.648,0,0,1,266.9,871.953Z" transform="translate(-265.631 -871.12)" fill="#ffcea6"/>
        </g>
        <g id="Group_10537" data-name="Group 10537" transform="translate(22.549 7.44)">
          <path id="Path_99888" data-name="Path 99888" d="M267.6,873.837a.353.353,0,1,1-.239-.439A.352.352,0,0,1,267.6,873.837Z" transform="translate(-266.904 -873.384)" fill="#ffcea6"/>
        </g>
        <g id="Group_10538" data-name="Group 10538" transform="translate(23.33 10.067)">
          <path id="Path_99889" data-name="Path 99889" d="M268.32,876.425a.324.324,0,1,1-.218-.4A.325.325,0,0,1,268.32,876.425Z" transform="translate(-267.684 -876.009)" fill="#ffcea6"/>
        </g>
        <g id="Group_10539" data-name="Group 10539" transform="translate(24.475 8.316)">
          <path id="Path_99890" data-name="Path 99890" d="M269.846,874.925a.519.519,0,1,1-.351-.645A.52.52,0,0,1,269.846,874.925Z" transform="translate(-268.829 -874.259)" fill="#ffcea6"/>
        </g>
        <g id="Group_10540" data-name="Group 10540" transform="translate(25.006 10.417)">
          <path id="Path_99891" data-name="Path 99891" d="M269.836,876.671a.244.244,0,1,1-.165-.3A.244.244,0,0,1,269.836,876.671Z" transform="translate(-269.359 -876.358)" fill="#ffcea6"/>
        </g>
        <g id="Group_10541" data-name="Group 10541" transform="translate(24.932 11.403)">
          <path id="Path_99892" data-name="Path 99892" d="M270.046,877.842a.388.388,0,1,1-.262-.484A.388.388,0,0,1,270.046,877.842Z" transform="translate(-269.285 -877.343)" fill="#ffcea6"/>
        </g>
        <g id="Group_10542" data-name="Group 10542" transform="translate(26.647 9.801)">
          <path id="Path_99893" data-name="Path 99893" d="M272.119,876.478a.572.572,0,1,1-.386-.712A.572.572,0,0,1,272.119,876.478Z" transform="translate(-270.999 -875.743)" fill="#ffcea6"/>
        </g>
        <g id="Group_10543" data-name="Group 10543" transform="translate(28.036 8.662)">
          <path id="Path_99894" data-name="Path 99894" d="M273.06,875.046a.344.344,0,1,1-.233-.427A.344.344,0,0,1,273.06,875.046Z" transform="translate(-272.386 -874.605)" fill="#ffcea6"/>
        </g>
        <g id="Group_10544" data-name="Group 10544" transform="translate(26.777 8.506)">
          <path id="Path_99895" data-name="Path 99895" d="M271.754,874.858a.319.319,0,1,1-.216-.4A.32.32,0,0,1,271.754,874.858Z" transform="translate(-271.128 -874.449)" fill="#ffcea6"/>
        </g>
        <g id="Group_10545" data-name="Group 10545" transform="translate(8.974 12.92)">
          <path id="Path_99896" data-name="Path 99896" d="M253.752,879.128a.21.21,0,1,1-.142-.261A.211.211,0,0,1,253.752,879.128Z" transform="translate(-253.341 -878.859)" fill="#ffcea6"/>
        </g>
      </g>
      <g id="Group_10566" data-name="Group 10566" transform="translate(28.092 11.555)">
        <g id="Group_10549" data-name="Group 10549" transform="translate(7.081 14.975)">
          <g id="Group_10547" data-name="Group 10547" transform="translate(0 0)">
            <path id="Path_99897" data-name="Path 99897" d="M264.222,872.309l1.357-8.57,1.36.329Z" transform="translate(-264.222 -863.739)" fill="#34495e"/>
          </g>
          <g id="Group_10548" data-name="Group 10548" transform="translate(1.079)">
            <path id="Path_99898" data-name="Path 99898" d="M266.011,866.105l-.711,2.93,1.636-4.966-1.359-.329-.23,1.457A.73.73,0,0,1,266.011,866.105Z" transform="translate(-265.3 -863.739)" fill="#18222b"/>
          </g>
        </g>
        <g id="Group_10550" data-name="Group 10550" transform="translate(0 0)">
          <path id="Rectangle_817" data-name="Rectangle 817" d="M2.288,0H16.5a2.288,2.288,0,0,1,2.288,2.288v8.681A2.287,2.287,0,0,1,16.5,13.255H2.287A2.287,2.287,0,0,1,0,10.968V2.288A2.288,2.288,0,0,1,2.288,0Z" transform="translate(3.122 0) rotate(13.621)" fill="#ffeda1"/>
        </g>
        <g id="Group_10551" data-name="Group 10551" transform="translate(0.295 1.216)">
          <path id="Path_99899" data-name="Path 99899" d="M273,866.287l-13.807-3.346a2.291,2.291,0,0,1-1.686-2.765l2.044-8.433a2.291,2.291,0,0,1,2.764-1.686l13.806,3.346a2.29,2.29,0,0,1,1.686,2.764l-2.044,8.432A2.291,2.291,0,0,1,273,866.287Z" transform="translate(-257.441 -849.992)" fill="#f1c40f"/>
        </g>
        <g id="Group_10559" data-name="Group 10559" transform="translate(3.853 5.065)">
          <g id="Group_10552" data-name="Group 10552">
            <path id="Path_99900" data-name="Path 99900" d="M264.1,855.052l-.007-.011c-.46.265-.916.536-1.319.815-.164.117-.791.643-1.1.9-.042.037-.114.1-.172.09-.1-.024-.309-.263-.283-.365a.268.268,0,0,1,.068-.086,12.144,12.144,0,0,0,1.524-1.765c.014-.058.009-.1-.048-.11a4.656,4.656,0,0,0-1.566.4.277.277,0,0,1-.147.025c-.084-.02-.046-.162-.032-.214.128-.535,1.037-.921,1.17-.889.023.005.046.024.041.047,0,.005-.041.07-.309.226l.007.011a3.377,3.377,0,0,1,1.353-.185c.152.037.278.157.225.318-.113.349-.358.6-1.177,1.471l.007.011a11.612,11.612,0,0,1,1.7-1.146,2.465,2.465,0,0,1,.653-.205.57.57,0,0,1,.261.51c-.067.281-.776.717-1.407,1.457a1.143,1.143,0,0,0-.227.331c-.019.081-.026.187.072.212.178.042.907-.417,1.074-.545-.017.109-.021.164-.03.2s-.028.054-.075.091c-.84.671-1.365.8-1.556.752-.222-.053-.255-.269-.209-.459a1.74,1.74,0,0,1,.419-.681Z" transform="translate(-260.996 -853.838)" fill="#34495e"/>
          </g>
          <g id="Group_10553" data-name="Group 10553" transform="translate(3.063 2.257)">
            <path id="Path_99901" data-name="Path 99901" d="M264.873,857.291a1.658,1.658,0,0,1-.543.184.676.676,0,0,1-.265-.621c.118-.56,1.412-.85,1.931-.738a.28.28,0,0,1,.237.283c-.012.053-.138.07-.182.074a.184.184,0,0,1,.085.214c-.034.141-.5.359-.547.568-.019.075.041.122.112.14.187.044.494-.121.718-.2l-.005.173a2.654,2.654,0,0,1-1.173.449.215.215,0,0,1-.156-.287,1.537,1.537,0,0,1,.285-.457l-.007-.011Zm-.51-.246c0,.023,0,.107.068.11.092,0,.227.051,1.323-.626l-.006-.011C264.61,856.586,264.415,856.827,264.362,857.045Z" transform="translate(-264.057 -856.093)" fill="#34495e"/>
          </g>
          <g id="Group_10554" data-name="Group 10554" transform="translate(5.15 2.158)">
            <path id="Path_99902" data-name="Path 99902" d="M268.232,856.462c-.311.371-.386.528-.869.378a1.771,1.771,0,0,0-.6.728c-.024.1-.006.163.1.189.143.034.335-.061.877-.278l-.024.2c-.32.175-.917.536-1.294.443a.278.278,0,0,1-.208-.365,1.2,1.2,0,0,1,.223-.416l-.007-.011-.271.127-.007-.181a2.623,2.623,0,0,0,.848-.547,1.616,1.616,0,0,0-.426-.084l.068-.069c.335-.333.388-.4.868-.3.178-.149.326-.335.585-.272.058.014.139.048.121.119s-.184.2-.243.246Z" transform="translate(-266.142 -855.994)" fill="#34495e"/>
          </g>
          <g id="Group_10555" data-name="Group 10555" transform="translate(6.573 3.016)">
            <path id="Path_99903" data-name="Path 99903" d="M269.087,857.38a2.989,2.989,0,0,1,.764-.352c.036.009.082.034.043.27-.017.108-.162.181-.248.226-.173.1-.575.37-.624.571-.017.071.017.107.087.125a2.041,2.041,0,0,0,.787-.252l-.019.2c-.279.163-.876.56-1.2.481a.281.281,0,0,1-.192-.358,1.121,1.121,0,0,1,.184-.351l-.007-.01c-.21.109-.6.436-.849.378-.218-.053-.278-.331-.231-.523a1.477,1.477,0,0,1,.876-.913.34.34,0,0,1,.207,0c.063.015.3.03.248.158-.025.07-.176.164-.234.194a1.62,1.62,0,0,1-.415.237.467.467,0,0,0-.338.323c-.005.022-.012.068.019.075a1.315,1.315,0,0,0,.612-.186Z" transform="translate(-267.563 -856.851)" fill="#34495e"/>
          </g>
          <g id="Group_10556" data-name="Group 10556" transform="translate(8.552 3.342)">
            <path id="Path_99904" data-name="Path 99904" d="M270.209,857.883a3.34,3.34,0,0,1-.668.422l.029-.2a1.583,1.583,0,0,0,.372-.252c-.09-.033-.108-.075-.086-.167a.887.887,0,0,1,.716-.5.08.08,0,0,1,.062.094.316.316,0,0,1-.062.117c.432.044.691.049.722.114a.463.463,0,0,1,.05.261c-.033.137-.135.184-.257.244-.155.08-.427.244-.47.422a.142.142,0,0,0,.109.158c.19.046.542-.175.714-.25l-.008.172c-.215.15-.847.519-1.1.458a.334.334,0,0,1-.22-.415c.074-.3.362-.482.593-.654l-.008-.01Z" transform="translate(-269.541 -857.178)" fill="#34495e"/>
          </g>
          <g id="Group_10557" data-name="Group 10557" transform="translate(10.205 3.988)">
            <path id="Path_99905" data-name="Path 99905" d="M272.009,859.02a1.639,1.639,0,0,1-.543.183.67.67,0,0,1-.265-.62c.117-.561,1.411-.85,1.931-.737a.28.28,0,0,1,.237.283c-.013.053-.139.069-.182.073a.183.183,0,0,1,.085.213c-.035.143-.5.359-.548.569-.019.075.041.122.112.14.186.045.5-.12.718-.2l0,.174a2.66,2.66,0,0,1-1.174.449.214.214,0,0,1-.156-.287,1.537,1.537,0,0,1,.285-.458l-.007-.011Zm-.51-.246c0,.023,0,.108.067.11.093,0,.228.051,1.325-.625l-.007-.012C271.745,858.315,271.551,858.557,271.5,858.774Z" transform="translate(-271.193 -857.823)" fill="#34495e"/>
          </g>
          <g id="Group_10558" data-name="Group 10558" transform="translate(12.458 3.421)">
            <path id="Path_99906" data-name="Path 99906" d="M274.949,859.356c-.305.2-.833.543-1.216.45-.324-.078-.319-.411-.255-.674a2.268,2.268,0,0,1,.811-1.207,2.986,2.986,0,0,1,1.174-.667c.075.018.067.129.049.185-.134.415-.344.779-1.535,1.479a.506.506,0,0,0-.106.3c.016.111.056.215.176.245a1.6,1.6,0,0,0,.873-.26Zm-.777-.818a2.81,2.81,0,0,0,.908-.812,2.248,2.248,0,0,0-.914.8Z" transform="translate(-273.444 -857.256)" fill="#34495e"/>
          </g>
        </g>
        <g id="Group_10560" data-name="Group 10560" transform="translate(9.014 10.711)">
          <path id="Path_99907" data-name="Path 99907" d="M268.021,860.649a.947.947,0,1,1-.7-1.143A.947.947,0,0,1,268.021,860.649Z" transform="translate(-266.153 -859.479)" fill="#34495e"/>
        </g>
        <g id="Group_10561" data-name="Group 10561" transform="translate(11.897 11.779)">
          <path id="Path_99908" data-name="Path 99908" d="M269.213,860.546l4.909,1.581-5.089-.841Z" transform="translate(-269.033 -860.546)" fill="#34495e"/>
        </g>
        <g id="Group_10562" data-name="Group 10562" transform="translate(2.938 9.956)">
          <path id="Path_99909" data-name="Path 99909" d="M264.99,860.307l-4.908-1.582,5.088.841Z" transform="translate(-260.082 -858.725)" fill="#34495e"/>
        </g>
        <g id="Group_10563" data-name="Group 10563" transform="translate(9.394 6.889)" opacity="0.3">
          <path id="Path_99910" data-name="Path 99910" d="M275.388,858.552q1.134-.937,2.283-1.862l.128-.528a2.337,2.337,0,0,0,.063-.5q-2.027,1.551-4.03,3.111-3.713,2.892-7.3,5.944l1.444.35C270.328,862.769,272.854,860.648,275.388,858.552Z" transform="translate(-266.533 -855.661)" fill="#ecf0f1"/>
        </g>
        <g id="Group_10564" data-name="Group 10564" transform="translate(1.503 3.807)" opacity="0.3">
          <path id="Path_99911" data-name="Path 99911" d="M259.19,862.938l5.488,1.329q4.249-4.1,8.673-8.029,1.539-1.372,3.09-2.731a2.367,2.367,0,0,0-.321-.107l-3.38-.819c-4.809,3.226-9.556,6.555-14.091,10.148A2.27,2.27,0,0,0,259.19,862.938Z" transform="translate(-258.649 -852.581)" fill="#ecf0f1"/>
        </g>
        <g id="Group_10565" data-name="Group 10565" transform="translate(0.295 1.216)" opacity="0.3">
          <path id="Path_99912" data-name="Path 99912" d="M270.739,852.1l-8.424-2.042a2.291,2.291,0,0,0-2.764,1.686l-2.044,8.433a2.275,2.275,0,0,0,.118,1.429C261.853,858.25,266.265,855.125,270.739,852.1Z" transform="translate(-257.442 -849.992)" fill="#ecf0f1"/>
        </g>
      </g>
    </g>
    <g id="Group_10629" data-name="Group 10629" transform="translate(42 -2)">
      <text id="Healthy_food" data-name="Healthy food" transform="translate(311 232)" fill="#7100bc" font-size="34" font-family="Swiss721BT-Bold, Swis721 BT" font-weight="700"><tspan x="0" y="0">HEALTHY FOOD</tspan></text>
      <text id="consumer_basket" data-name="consumer basket" transform="translate(365 256)" fill="#242424" font-size="17" font-family="Roboto-Regular, Roboto"><tspan x="0" y="0">CONSUMER BASKET</tspan></text>
    </g>
    <g id="Group_10628" data-name="Group 10628" transform="translate(-57 0)">
      <g id="Union_1" data-name="Union 1" transform="translate(963 261.001) rotate(180)" fill="#7100bc">
        <path d="M 158.9994812011719 65.00059509277344 C 154.5991058349609 65.00059509277344 150.3370513916016 64.1241455078125 146.3316955566406 62.39559936523438 C 142.4621734619141 60.72567367553711 139.0038452148438 58.33959579467773 136.0527496337891 55.30367279052734 L 135.7582244873047 55.00069808959961 L 135.335693359375 55.00069808959961 L 1.000073671340942 55.00069808959961 L 1.000073671340942 9.999997138977051 L 136.3506469726563 9.999997138977051 L 136.7481231689453 9.999997138977051 L 137.0371246337891 9.727147102355957 C 142.9983062744141 4.099347591400146 150.7980194091797 0.9999975562095642 158.9994812011719 0.9999975562095642 C 163.3199768066406 0.9999975562095642 167.5107269287109 1.845972537994385 171.4552764892578 3.514397621154785 C 175.2657165527344 5.12612247467041 178.6880798339844 7.433647632598877 181.6272277832031 10.3728723526001 C 184.5663757324219 13.31207275390625 186.8738555908203 16.73442268371582 188.4855041503906 20.54487228393555 C 190.1538696289063 24.48934745788574 190.9998016357422 28.67997169494629 190.9998016357422 33.00029754638672 C 190.9998016357422 37.32084655761719 190.1538696289063 41.51157379150391 188.4855041503906 45.45609664916992 C 186.8738555908203 49.26657104492188 184.56640625 52.68889617919922 181.6272430419922 55.62804794311523 C 178.6880950927734 58.56719589233398 175.2657470703125 60.87464904785156 171.4552764892578 62.48632431030273 C 167.5107421875 64.15467071533203 163.3200225830078 65.00059509277344 158.9994812011719 65.00059509277344 Z" stroke="none"/>
        <path d="M 158.9994812011719 2.000007629394531 C 151.0543212890625 2.000007629394531 143.4983978271484 5.002456665039063 137.7236022949219 10.45429611206055 L 137.1455535888672 11.00000762939453 L 136.3506317138672 11.00000762939453 L 2.00006103515625 11.00000762939453 L 2.00006103515625 54.00069427490234 L 135.335693359375 54.00069427490234 L 136.1807708740234 54.00069427490234 L 136.7697906494141 54.60666656494141 C 139.6290283203125 57.54806137084961 142.9794311523438 59.85974502563477 146.7279205322266 61.4774284362793 C 150.607421875 63.15166473388672 154.7361907958984 64.00058746337891 158.9994812011719 64.00058746337891 C 163.1854705810547 64.00058746337891 167.2451324462891 63.18124389648438 171.0657348632813 61.5652961730957 C 174.7570037841797 60.00405883789063 178.072509765625 57.76856231689453 180.9201354980469 54.92092895507813 C 183.7677612304688 52.07329559326172 186.0032348632813 48.7578239440918 187.5644989013672 45.06655883789063 C 189.1804504394531 41.24595642089844 189.9997863769531 37.18627166748047 189.9997863769531 33.00029754638672 C 189.9997863769531 28.81450653076172 189.1804504394531 24.75498199462891 187.5644989013672 20.93442916870117 C 186.0032348632813 17.2431640625 183.7677459716797 13.92766571044922 180.9201049804688 11.07998275756836 C 178.0724487304688 8.232273101806641 174.7569580078125 5.996719360351563 171.0657196044922 4.435401916503906 C 167.2450866699219 2.819404602050781 163.1854248046875 2.000007629394531 158.9994812011719 2.000007629394531 M 158.9994812011719 7.62939453125e-06 C 177.2253723144531 7.62939453125e-06 191.9997863769531 14.77529907226563 191.9997863769531 33.00029754638672 C 191.9997863769531 51.22619247436523 177.2253723144531 66.00058746337891 158.9994812011719 66.00058746337891 C 149.7178955078125 66.00058746337891 141.3316040039063 62.1689567565918 135.335693359375 56.00069427490234 L 6.103515625e-05 56.00069427490234 L 6.103515625e-05 9.000007629394531 L 136.3506317138672 9.000007629394531 C 142.2605590820313 3.420612335205078 150.230712890625 7.62939453125e-06 158.9994812011719 7.62939453125e-06 Z" stroke="none" fill="#4b0b75"/>
      </g>
      <g id="Group_10627" data-name="Group 10627" transform="translate(57 0)">
        <g id="rupee-indian" transform="translate(665.194 214)">
          <path id="Path_99965" data-name="Path 99965" d="M91.008,6.532a.637.637,0,0,0-.471-.184h-3.5A7.087,7.087,0,0,0,85.726,3.4H90.5a.629.629,0,0,0,.655-.655V.655A.63.63,0,0,0,90.5,0H73.461a.63.63,0,0,0-.655.655V3.378a.664.664,0,0,0,.655.655H76.43q4.32,0,5.487,2.314H73.461A.63.63,0,0,0,72.806,7V9.091a.63.63,0,0,0,.655.655H82.2a4,4,0,0,1-2.1,2.56,9.24,9.24,0,0,1-4.351.881H73.461a.664.664,0,0,0-.655.655v2.6a.612.612,0,0,0,.184.451q3.931,4.177,10.2,11.691a.6.6,0,0,0,.512.246h3.993a.594.594,0,0,0,.594-.369.559.559,0,0,0-.082-.7q-5.978-7.33-9.4-10.975a10.384,10.384,0,0,0,5.651-2.252A7.655,7.655,0,0,0,87.1,9.746h3.44a.631.631,0,0,0,.655-.655V7A.638.638,0,0,0,91.008,6.532Z" fill="#fff"/>
        </g>
      </g>
      <text id="Lowest_Price" data-name="Lowest Price" transform="translate(842 234)" fill="#fff" font-size="16" font-family="Roboto-Medium, Roboto" font-weight="500"><tspan x="0" y="0">LOWEST PRICE</tspan></text>
    </g>
  </g>
</svg>
